<?xml version="1.0" encoding="UTF-8"?>
<svg width="12px" height="15px" viewBox="0 0 12 15" version="1.1" xmlns="http://www.w3.org/2000/svg" xmlns:xlink="http://www.w3.org/1999/xlink">
    <!-- Generator: Sketch 47.1 (45422) - http://www.bohemiancoding.com/sketch -->
    <title>ic_calc</title>
    <desc>Created with Sketch.</desc>
    <defs>
        <linearGradient x1="50%" y1="3.37611607%" x2="50%" y2="100%" id="linearGradient-1">
            <stop stop-color="#F1BF00" offset="0%"></stop>
            <stop stop-color="#DF8B00" offset="100%"></stop>
        </linearGradient>
    </defs>
    <g id="Symbols" stroke="none" stroke-width="1" fill="none" fill-rule="evenodd">
        <g id="ic_calc">
            <g>
                <rect id="Rectangle-8" fill="url(#linearGradient-1)" x="0" y="0" width="12" height="15" rx="1"></rect>
                <rect id="Rectangle-9" fill="#F1F5FF" x="2" y="5" width="2" height="2" rx="1"></rect>
                <rect id="Rectangle-9" fill="#F1F5FF" x="2" y="8" width="2" height="2" rx="1"></rect>
                <rect id="Rectangle-9" fill="#F1F5FF" x="2" y="11" width="2" height="2" rx="1"></rect>
                <rect id="Rectangle-9" fill="#F1F5FF" x="5" y="5" width="2" height="2" rx="1"></rect>
                <rect id="Rectangle-9" fill="#F1F5FF" x="5" y="8" width="2" height="2" rx="1"></rect>
                <rect id="Rectangle-9" fill="#F1F5FF" x="5" y="11" width="2" height="2" rx="1"></rect>
                <rect id="Rectangle-9" fill="#F1F5FF" x="8" y="5" width="2" height="2" rx="1"></rect>
                <rect id="Rectangle-9" fill="#F1F5FF" x="2" y="2" width="8" height="2" rx="1"></rect>
                <rect id="Rectangle-9" fill="#F1F5FF" x="8" y="8" width="2" height="2" rx="1"></rect>
                <rect id="Rectangle-9" fill="#F1F5FF" x="8" y="11" width="2" height="2" rx="1"></rect>
            </g>
        </g>
    </g>
</svg>