<?xml version="1.0" encoding="UTF-8"?>
<svg width="20px" height="24px" viewBox="0 0 20 24" version="1.1" xmlns="http://www.w3.org/2000/svg" xmlns:xlink="http://www.w3.org/1999/xlink">
    <!-- Generator: Sketch 47.1 (45422) - http://www.bohemiancoding.com/sketch -->
    <title>Group</title>
    <desc>Created with Sketch.</desc>
    <defs></defs>
    <g id="Symbols" stroke="none" stroke-width="1" fill="none" fill-rule="evenodd">
        <g id="ic_mobile-calc" fill="#FFFFFF">
            <g id="Group">
                <path d="M1,0 L18,0 L18,2 L2,2 L2,22 L18,22 L18,24 L0,24 L0,23 L0,0 L1,0 Z M18,0 L20,0 L20,24 L18,24 L18,0 Z" id="Combined-Shape"></path>
                <rect id="Rectangle-4" x="5" y="5" width="10" height="2" rx="1"></rect>
                <rect id="Rectangle-4" x="5" y="9" width="2" height="2" rx="1"></rect>
                <rect id="Rectangle-4" x="5" y="13" width="2" height="2" rx="1"></rect>
                <rect id="Rectangle-4" x="5" y="17" width="2" height="2" rx="1"></rect>
                <rect id="Rectangle-4" x="9" y="9" width="2" height="2" rx="1"></rect>
                <rect id="Rectangle-4" x="9" y="13" width="2" height="2" rx="1"></rect>
                <rect id="Rectangle-4" x="9" y="17" width="2" height="2" rx="1"></rect>
                <rect id="Rectangle-4" x="13" y="9" width="2" height="2" rx="1"></rect>
                <rect id="Rectangle-4" x="13" y="13" width="2" height="2" rx="1"></rect>
                <rect id="Rectangle-4" x="13" y="17" width="2" height="2" rx="1"></rect>
            </g>
        </g>
    </g>
</svg>