<?xml version="1.0" encoding="UTF-8"?>
<svg width="13px" height="17px" viewBox="0 0 13 17" version="1.1" xmlns="http://www.w3.org/2000/svg" xmlns:xlink="http://www.w3.org/1999/xlink">
    <!-- Generator: Sketch 47.1 (45422) - http://www.bohemiancoding.com/sketch -->
    <title>Page 1</title>
    <desc>Created with Sketch.</desc>
    <defs>
        <linearGradient x1="50%" y1="3.37611607%" x2="50%" y2="100%" id="linearGradient-1">
            <stop stop-color="#F1BF00" offset="0%"></stop>
            <stop stop-color="#DF8B00" offset="100%"></stop>
        </linearGradient>
    </defs>
    <g id="Symbols" stroke="none" stroke-width="1" fill="none" fill-rule="evenodd">
        <g id="ic_sertificate" fill="url(#linearGradient-1)">
            <g id="Page-1" transform="translate(6.500000, 8.500000) scale(-1, 1) translate(-6.500000, -8.500000) ">
                <g id="Group-3">
                    <path d="M6.49497423,10.341753 C4.33281959,10.341753 2.57085052,8.62112886 2.57085052,6.50980671 C2.57085052,4.39848456 4.33281959,2.6778604 6.49497423,2.6778604 C8.65726289,2.6778604 10.4190533,4.39848456 10.4190533,6.50980671 C10.4190533,8.62470604 8.65726289,10.341753 6.49497423,10.341753 M12.9422595,7.73468591 L12.0880567,6.59347785 C12.0344931,6.52014564 12.0309639,6.41898121 12.0845722,6.34564899 L12.9207715,5.19405839 C12.995823,5.08944765 12.9602182,4.9427396 12.8457646,4.88341074 L11.569933,4.21696443 C11.4877337,4.17504161 11.4413179,4.08421611 11.4591426,3.99352148 L11.6985481,2.60099463 C11.7199914,2.47540067 11.6234966,2.35678658 11.4912182,2.35325302 L10.0473694,2.29392416 C9.9545378,2.29047785 9.87233849,2.22761544 9.84723196,2.14036711 L9.44709107,0.779380537 C9.41130756,0.657145638 9.27188144,0.590836913 9.15041409,0.643185906 L7.82084021,1.20157517 C7.73515636,1.23656174 7.63499828,1.21562215 7.57080241,1.14931342 L6.6057646,0.0987563758 C6.51641753,0.00452818792 6.36635911,0.00452818792 6.27701203,0.102333557 L5.32631443,1.16667584 C5.26555842,1.23656174 5.16557904,1.25754497 5.07971649,1.22255839 L3.74317354,0.685108725 C3.62152749,0.63620604 3.4857646,0.702514765 3.45002577,0.82470604 L3.06766495,2.18573624 C3.04269244,2.27298456 2.96402234,2.33580336 2.87119072,2.34282685 L1.42729725,2.42305168 C1.2950189,2.43007517 1.20200859,2.54868926 1.22349656,2.67428322 L1.48439003,4.06327651 C1.5023488,4.15410201 1.4557543,4.24475302 1.37721821,4.28667584 L0.112063574,4.97070268 C-0.00225601375,5.0335651 -0.0345103093,5.18009866 0.0404965636,5.28130671 L0.894699313,6.42255839 C0.94830756,6.49584698 0.95197079,6.59705503 0.898362543,6.67034362 L0.0619845361,7.82193423 C-0.0130670103,7.92671946 0.0227164948,8.07329664 0.136991409,8.13258188 L1.41300172,8.79920268 C1.49520103,8.8411255 1.54161684,8.93177651 1.5237921,9.02264564 L1.2842079,10.414998 C1.2629433,10.5405919 1.35925945,10.6593369 1.4915378,10.6627396 L2.9353866,10.7221121 C3.02839691,10.7256893 3.11059622,10.7883336 3.13556873,10.8755819 L3.53937285,12.2332094 C3.57511168,12.3554443 3.7145378,12.4217094 3.83600515,12.3693604 L5.16557904,11.8109711 C5.25126289,11.7760718 5.35142096,11.7969678 5.41566151,11.8633201 L6.38065464,12.9138772 C6.47000172,13.0081054 6.62010481,13.0081054 6.70940722,12.9103 L7.66014948,11.8458705 C7.72086082,11.7760718 7.82084021,11.755045 7.90670275,11.7899879 L9.2432457,12.3274812 C9.36489175,12.3763839 9.50065464,12.3101188 9.53643814,12.1878839 L9.9187543,10.8268973 C9.9437268,10.739649 10.0223969,10.676743 10.1152732,10.6697631 L11.559122,10.5894946 C11.6914003,10.5825148 11.7844107,10.4639443 11.7629227,10.3383503 L11.5020739,8.94918255 C11.4840704,8.85853154 11.5306649,8.76788054 11.609201,8.72595772 L12.8743557,8.04193087 C12.9886753,7.98604832 13.0209742,7.83947114 12.9422595,7.73468591" id="Fill-1"></path>
                </g>
                <path d="M9.88415328,13 C9.67342665,13.1924603 9.37919943,13.3067209 9.06313219,13.3067209 C8.95066292,13.3067209 8.83805744,13.2904854 8.73271683,13.2642964 L7.79550323,13.0097087 L7.07255789,13.6037331 C7.04722165,13.6231913 7.02538164,13.6427718 7,13.6592113 L8.16228834,16.8964853 C8.20238134,17.0107458 8.3657501,17.036894 8.4492507,16.942214 L9.29565342,15.9663691 C9.3355648,15.9174586 9.40830431,15.8978781 9.4700103,15.9141136 L10.7885387,16.2600771 C10.9157194,16.2927114 11.0320481,16.1850184 10.9919551,16.0740621 L9.88415328,13 Z" id="Fill-4"></path>
                <path d="M5.2045418,13.009701 L4.26732777,13.2640879 C4.15844549,13.2934355 4.04933617,13.3064381 3.93673064,13.3064381 C3.62084488,13.3064381 3.33011374,13.1922677 3.11589079,13 L2.00804305,16.074816 C1.96795004,16.1890272 2.08432422,16.2934558 2.21132328,16.2608474 L3.53003396,15.915116 C3.5952816,15.8989341 3.6642979,15.9182953 3.70439092,15.9673711 L4.55074863,16.9422422 C4.63057142,17.0368883 4.79766351,17.01072 4.83775652,16.8965496 L6,13.6618705 C5.97466376,13.645607 5.94910048,13.6260012 5.92748749,13.6064361 L5.2045418,13.009701 Z" id="Fill-6"></path>
                <path d="M8.72488779,5.67104512 L7.30917507,5.56401468 L6.77569147,4.19274852 C6.67652618,3.93575049 6.32440392,3.93575049 6.22519589,4.19274852 L5.69175503,5.56401468 L4.27604232,5.67104512 C4.00936463,5.6925137 3.90336036,6.03873352 4.10506769,6.21726636 L5.18900412,7.17429168 L4.85055983,8.61317715 C4.78563222,8.88463635 5.06945011,9.0989204 5.29505114,8.95247883 L6.49871256,8.17050496 L7.70237399,8.95247883 C7.92810325,9.0989204 8.21196389,8.88463635 8.14699352,8.61317715 L7.80842101,7.17429168 L8.89235744,6.21726636 C9.09756975,6.03873352 8.99152273,5.6925137 8.72488779,5.67104512" id="Fill-8"></path>
            </g>
        </g>
    </g>
</svg>