<?xml version="1.0" encoding="UTF-8"?>
<svg width="14px" height="14px" viewBox="0 0 14 14" version="1.1" xmlns="http://www.w3.org/2000/svg" xmlns:xlink="http://www.w3.org/1999/xlink">
    <!-- Generator: Sketch 47.1 (45422) - http://www.bohemiancoding.com/sketch -->
    <title>Page 1</title>
    <desc>Created with Sketch.</desc>
    <defs></defs>
    <g id="Symbols" stroke="none" stroke-width="1" fill="none" fill-rule="evenodd">
        <g id="footer-320" transform="translate(-64.000000, -375.000000)" fill="#FFFFFF">
            <g id="Group-6">
                <g transform="translate(64.000000, 360.000000)">
                    <g id="Page-1" transform="translate(0.000000, 15.000000)">
                        <path d="M6.945176,12.522104 C3.930696,12.522104 1.477896,10.069864 1.477896,7.054824 C1.477896,4.040344 3.930696,1.587544 6.945176,1.587544 C9.959656,1.587544 12.412456,4.040344 12.412456,7.054824 C12.412456,10.069864 9.959656,12.522104 6.945176,12.522104 M6.945176,0.109704 C3.115896,0.109704 5.6e-05,3.224984 5.6e-05,7.054824 C5.6e-05,10.884664 3.115896,13.999944 6.945176,13.999944 C10.774456,13.999944 13.890296,10.884664 13.890296,7.054824 C13.890296,3.224984 10.774456,0.109704 6.945176,0.109704" id="Fill-1"></path>
                        <path d="M10.4089383,7.7451864 L7.18212342,7.7451864 L7.18212342,3.6274068 C7.18212342,3.28082753 6.91756397,3 6.59106171,3 C6.26455945,3 6,3.28082753 6,3.6274068 L6,8.3725932 C6,8.71917247 6.26455945,9 6.59106171,9 L10.4089383,9 C10.7354405,9 11,8.71917247 11,8.3725932 C11,8.02662843 10.7354405,7.7451864 10.4089383,7.7451864" id="Fill-4"></path>
                    </g>
                </g>
            </g>
        </g>
    </g>
</svg>