<?xml version="1.0" encoding="UTF-8"?>
<svg width="14px" height="9px" viewBox="0 0 14 9" version="1.1" xmlns="http://www.w3.org/2000/svg" xmlns:xlink="http://www.w3.org/1999/xlink">
    <!-- Generator: Sketch 47.1 (45422) - http://www.bohemiancoding.com/sketch -->
    <title>ic_mail-grey</title>
    <desc>Created with Sketch.</desc>
    <defs>
        <linearGradient x1="50%" y1="3.37611607%" x2="50%" y2="100%" id="linearGradient-1">
            <stop stop-color="#F1BF00" offset="0%"></stop>
            <stop stop-color="#DF8B00" offset="100%"></stop>
        </linearGradient>
    </defs>
    <g id="Symbols" stroke="none" stroke-width="1" fill="none" fill-rule="evenodd">
        <g id="ic_mail-grey" fill="url(#linearGradient-1)" fill-rule="nonzero">
            <path d="M0.43956331,0.817039211 C0.820573378,1.01452548 6.09633754,3.74742229 6.29269586,3.84917589 C6.48921027,3.95092948 6.74363322,4 6.99992922,4 C7.2563813,4 7.51049207,3.95092948 7.70716257,3.84917589 C7.9035209,3.74742229 13.1792851,1.014676 13.560139,0.817039211 C13.9414613,0.61970347 14.302336,0 13.6019705,0 L0.397887895,0 C-0.302009339,0 0.0582410661,0.61970347 0.43956331,0.817039211 Z M13.6988432,2.06342929 C13.2674877,2.29919969 7.96895501,5.20160348 7.70482171,5.34564014 C7.44053285,5.49016561 7.25542176,5.50890341 6.99999957,5.50890341 C6.74457738,5.50890341 6.55946629,5.49016561 6.29517743,5.34564014 C6.03104413,5.20160348 0.732822528,2.29919969 0.301155912,2.06342929 C-0.00264405198,1.89772196 3.92149684e-07,2.09210627 3.92149684e-07,2.24233454 C3.92149684e-07,2.39256282 3.92149684e-07,8.2187152 3.92149684e-07,8.2187152 C3.92149684e-07,8.56023198 0.434311452,9 0.771400302,9 L13.2285988,9 C13.5656877,9 13.9999988,8.56023198 13.9999988,8.2187152 C13.9999988,8.2187152 13.9999988,2.39256282 13.9999988,2.24233454 C13.9999988,2.09210627 14.0031099,1.89772196 13.6988432,2.06342929 Z"></path>
        </g>
    </g>
</svg>