<?xml version="1.0" encoding="UTF-8"?>
<svg width="13px" height="8px" viewBox="0 0 13 8" version="1.1" xmlns="http://www.w3.org/2000/svg" xmlns:xlink="http://www.w3.org/1999/xlink">
    <!-- Generator: Sketch 47.1 (45422) - http://www.bohemiancoding.com/sketch -->
    <title>Shape</title>
    <desc>Created with Sketch.</desc>
    <defs></defs>
    <g id="Symbols" stroke="none" stroke-width="1" fill="none" fill-rule="evenodd">
        <g id="footer-320" transform="translate(-65.000000, -250.000000)" fill-rule="nonzero" fill="#FFFFFF">
            <g id="Group-3">
                <g transform="translate(65.000000, 232.000000)">
                    <path d="M0.429000314,18.7486897 C0.781589161,18.9296552 5.66381081,21.433931 5.8455219,21.5271724 C6.02737744,21.6204138 6.26282185,21.6653793 6.4999996,21.6653793 C6.7373218,21.6653793 6.97247732,21.6204138 7.1544773,21.5271724 C7.33618839,21.433931 12.21841,18.9297931 12.5708544,18.7486897 C12.9237322,18.5678621 13.2576877,18 12.6095656,18 L0.390433652,18 C-0.257255161,18 0.0761225774,18.5678621 0.429000314,18.7486897 Z M12.7203544,20.128 C12.31981,20.3275862 7.39974394,22.7845517 7.1544773,22.9064828 C6.90906622,23.0288276 6.73717735,23.0446897 6.4999996,23.0446897 C6.26282185,23.0446897 6.09093298,23.0288276 5.8455219,22.9064828 C5.60025526,22.7845517 0.680478062,20.3275862 0.279644776,20.128 C-0.00245519113,19.9877241 3.64138992e-07,20.1522759 3.64138992e-07,20.2794483 C3.64138992e-07,20.4066207 3.64138992e-07,25.3386207 3.64138992e-07,25.3386207 C3.64138992e-07,25.6277241 0.403289206,26 0.71630028,26 L12.2836989,26 C12.59671,26 12.9999988,25.6277241 12.9999988,25.3386207 C12.9999988,25.3386207 12.9999988,20.4066207 12.9999988,20.2794483 C12.9999988,20.1522759 13.0028877,19.9877241 12.7203544,20.128 Z" id="Shape"></path>
                </g>
            </g>
        </g>
    </g>
</svg>