<?xml version="1.0" encoding="UTF-8"?>
<svg width="27px" height="24px" viewBox="0 0 27 24" version="1.1" xmlns="http://www.w3.org/2000/svg" xmlns:xlink="http://www.w3.org/1999/xlink">
    <!-- Generator: Sketch 47.1 (45422) - http://www.bohemiancoding.com/sketch -->
    <title>ic_menu-1</title>
    <desc>Created with Sketch.</desc>
    <defs>
        <path d="M3,4.91442407 C2.41739982,4.70823894 2,4.15245384 2,3.5 C2,2.67219388 2.6719082,2 3.50063748,2 C4.3280918,2 5,2.67219388 5,3.5 C5,4.1526871 4.58230167,4.70863633 4,4.91464508 L4,9 L7,9 L7,6.44880618 C7,6.20016755 7.224,6 7.5,6 C7.776,6 8,6.20016755 8,6.44880618 L8,9 L11,9 L11,6.44880618 C11,6.20016755 11.224,6 11.5,6 C11.776,6 12,6.20016755 12,6.44880618 L12,9 L15,9 L15,6.44880618 C15,6.20016755 15.224,6 15.5,6 C15.776,6 16,6.20016755 16,6.44880618 L16,9 L19,9 L19,6.44880618 C19,6.20016755 19.224,6 19.5,6 C19.776,6 20,6.20016755 20,6.44880618 L20,9 L23,9 L23,4.91442407 C22.4173998,4.70823894 22,4.15245384 22,3.5 C22,2.67219388 22.6719082,2 23.5006375,2 C24.3280918,2 25,2.67219388 25,3.5 C25,4.1526871 24.5823017,4.70863633 24,4.91464508 L24,20.491353 C24,20.4927968 23.9999941,20.4942392 23.9999823,20.4956802 C23.9999923,20.497114 24,20.4985563 24,20.5 C24,20.52138 23.9983184,20.5424479 23.995054,20.5631239 C23.96074,20.8099516 23.7520542,21 23.5,21 C23.4808998,21 23.4620485,20.9989087 23.4435034,20.996784 C23.4199382,20.9989085 23.3959701,21 23.3716714,21 L3.62832865,21 C3.60407391,21 3.58013874,20.9989046 3.55659706,20.9967725 C3.53801952,20.9989047 3.51913473,21 3.5,21 C3.24757585,21 3.03864747,20.8093933 3.00479607,20.5620367 C3.00163045,20.5417096 3,20.5210054 3,20.5 C3,20.4985563 3.0000077,20.497114 3.00002308,20.4956731 C3.00000592,20.4942392 3,20.4927968 3,20.491353 L3,4.91442407 Z M4,20 L7,20 L7,18 L4,18 L4,20 Z M4,17 L7,17 L7,10 L4,10 L4,17 Z M23,10 L20,10 L20,17 L23,17 L23,10 Z M8,10 L8,17 L11,17 L11,10 L8,10 Z M12,10 L12,17 L15,17 L15,10 L12,10 Z M16,10 L16,17 L19,17 L19,10 L16,10 Z M23,18 L20,18 L20,20 L23,20 L23,18 Z M19,18 L16,18 L16,20 L19,20 L19,18 Z M15,18 L12,18 L12,20 L15,20 L15,18 Z M11,18 L8,18 L8,20 L11,20 L11,18 Z" id="path-1"></path>
        <filter x="-2.2%" y="-2.6%" width="104.3%" height="110.5%" filterUnits="objectBoundingBox" id="filter-2">
            <feOffset dx="0" dy="1" in="SourceAlpha" result="shadowOffsetOuter1"></feOffset>
            <feColorMatrix values="0 0 0 0 0   0 0 0 0 0   0 0 0 0 0  0 0 0 0.16760077 0" type="matrix" in="shadowOffsetOuter1"></feColorMatrix>
        </filter>
    </defs>
    <g id="Symbols" stroke="none" stroke-width="1" fill="none" fill-rule="evenodd">
        <g id="ic_menu-1">
            <g id="Combined-Shape">
                <use fill="black" fill-opacity="1" filter="url(#filter-2)" xlink:href="#path-1"></use>
                <use fill="#FFFFFF" fill-rule="evenodd" xlink:href="#path-1"></use>
            </g>
        </g>
    </g>
</svg>