<?xml version="1.0" encoding="UTF-8"?>
<svg width="35px" height="24px" viewBox="0 0 35 24" version="1.1" xmlns="http://www.w3.org/2000/svg" xmlns:xlink="http://www.w3.org/1999/xlink">
    <!-- Generator: Sketch 47.1 (45422) - http://www.bohemiancoding.com/sketch -->
    <title>ic_menu-2</title>
    <desc>Created with Sketch.</desc>
    <defs>
        <path d="M31,6.06706724 L31,4.91318547 C30.4173998,4.70708797 30,4.15153907 30,3.49936252 C30,2.6719082 30.6719082,2 31.5006375,2 C32.3280918,2 33,2.6719082 33,3.49936252 C33,4.15177223 32.5823017,4.70748519 32,4.91340638 L32,21.4614326 C32,21.7587218 31.776,22 31.5,22 C31.224,22 31,21.7587218 31,21.4614326 L31,19.1508304 L19.6363223,20.9924718 C19.6078466,20.9978491 19.5771805,21 19.5476095,21 C19.4194689,21 19.2935187,20.9548307 19.1938538,20.8720203 C19.070094,20.7698516 19,20.6203626 19,20.46227 L19,8.4687401 C19,8.2052524 19.1938538,7.98048126 19.4588968,7.93746286 L31,6.06706724 Z M31,7.15628367 L28,7.64280004 L28,18.5040093 C28,18.5186218 27.9993619,18.5330875 27.9981119,18.5473803 L31,18.060628 L31,7.15628367 Z M27.041678,18.7024648 C27.0148737,18.6416843 27,18.5745593 27,18.5040093 L27,7.80497216 L23.9571443,8.29843853 C23.9846903,8.3606561 24,8.42952707 24,8.50196603 L24,19.1956689 L27.041678,18.7024648 Z M23,19.3578176 L23,8.50196603 C23,8.48554319 23.0007869,8.46930373 23.0023249,8.45328362 L20.0952191,8.92473514 L20.0952191,19.8288241 L23,19.3578176 Z M4,19.1508304 L4,21.4614326 C4,21.7587218 3.776,22 3.5,22 C3.224,22 3,21.7587218 3,21.4614326 L3,4.91318547 C2.41739982,4.70708797 2,4.15153907 2,3.49936252 C2,2.6719082 2.6719082,2 3.50063748,2 C4.3280918,2 5,2.6719082 5,3.49936252 C5,4.15177223 4.58230167,4.70748519 4,4.91340638 L4,6.06706724 L15.5411032,7.93746286 C15.8061462,7.98048126 16,8.2052524 16,8.4687401 L16,20.46227 C16,20.6203626 15.929906,20.7698516 15.8061462,20.8720203 C15.7064813,20.9548307 15.5805311,21 15.4523905,21 C15.4228195,21 15.3921534,20.9978491 15.3636777,20.9924718 L4,19.1508304 Z M4,18.060628 L7.0023971,18.5474628 C7.00081153,18.5312008 7,18.5147119 7,18.498034 L7,7.64280004 L4,7.15628367 L4,18.060628 Z M11,19.1956689 L11,8.49599074 C11,8.4256978 11.0147654,8.35880507 11.0413854,8.29820009 L8,7.80497216 L8,18.498034 C8,18.5707309 7.98458108,18.6398344 7.95684951,18.702226 L11,19.1956689 Z M11.9981765,8.45336493 C11.9993839,8.46741525 12,8.48163206 12,8.49599074 L12,19.3578176 L14.9047809,19.8288241 L14.9047809,8.92473514 L11.9981765,8.45336493 Z" id="path-1"></path>
        <filter x="-1.6%" y="-2.5%" width="103.2%" height="110.0%" filterUnits="objectBoundingBox" id="filter-2">
            <feOffset dx="0" dy="1" in="SourceAlpha" result="shadowOffsetOuter1"></feOffset>
            <feColorMatrix values="0 0 0 0 0   0 0 0 0 0   0 0 0 0 0  0 0 0 0.16760077 0" type="matrix" in="shadowOffsetOuter1"></feColorMatrix>
        </filter>
    </defs>
    <g id="Symbols" stroke="none" stroke-width="1" fill="none" fill-rule="evenodd">
        <g id="ic_menu-2">
            <g id="Combined-Shape">
                <use fill="black" fill-opacity="1" filter="url(#filter-2)" xlink:href="#path-1"></use>
                <use fill="#FFFFFF" fill-rule="evenodd" xlink:href="#path-1"></use>
            </g>
        </g>
    </g>
</svg>