<?xml version="1.0" encoding="UTF-8"?>
<svg width="15px" height="15px" viewBox="0 0 15 15" version="1.1" xmlns="http://www.w3.org/2000/svg" xmlns:xlink="http://www.w3.org/1999/xlink">
    <!-- Generator: Sketch 47.1 (45422) - http://www.bohemiancoding.com/sketch -->
    <title>bt question-circle-small hover</title>
    <desc>Created with Sketch.</desc>
    <defs></defs>
    <g id="Symbols" stroke="none" stroke-width="1" fill="none" fill-rule="evenodd">
        <g id="bt-question-circle-small-hover">
            <circle id="Oval-2" fill="#7EC0F4" cx="7.5" cy="7.5" r="7.5"></circle>
            <path d="M6.9921875,9.5859375 C6.99609377,9.02734096 7.06054625,8.62793089 7.18554688,8.38769531 C7.3105475,8.14745974 7.58788848,7.84570494 8.01757812,7.48242188 C8.32226715,7.18554539 8.56445223,6.90136854 8.74414062,6.62988281 C8.92382902,6.35839708 9.01367188,6.05859539 9.01367188,5.73046875 C9.01367188,5.35156061 8.91113384,5.05761823 8.70605469,4.84863281 C8.50097554,4.63964739 8.20898627,4.53515625 7.83007812,4.53515625 C7.50585775,4.53515625 7.23046988,4.62402255 7.00390625,4.80175781 C6.77734262,4.97949308 6.6640625,5.24218576 6.6640625,5.58984375 L5.29296875,5.58984375 L5.27539062,5.5546875 C5.26367182,4.85937152 5.49706792,4.31738476 5.97558594,3.92871094 C6.45410396,3.54003712 7.07226184,3.34570312 7.83007812,3.34570312 C8.65039473,3.34570312 9.29003677,3.55468541 9.74902344,3.97265625 C10.2080101,4.39062709 10.4375,4.97069941 10.4375,5.71289062 C10.4375,6.20898686 10.2939467,6.66894319 10.0068359,7.09277344 C9.71972513,7.51660368 9.35742406,7.90429512 8.91992188,8.25585938 C8.69726451,8.45117285 8.55761747,8.63671787 8.50097656,8.8125 C8.44433565,8.98828213 8.41601562,9.24609205 8.41601562,9.5859375 L6.9921875,9.5859375 Z M8.43945312,12 L6.98632812,12 L6.98632812,10.6347656 L8.43945312,10.6347656 L8.43945312,12 Z" id="?" fill="#FFFFFF"></path>
        </g>
    </g>
</svg>