<?xml version="1.0" encoding="UTF-8"?>
<svg width="20px" height="20px" viewBox="0 0 20 20" version="1.1" xmlns="http://www.w3.org/2000/svg" xmlns:xlink="http://www.w3.org/1999/xlink">
    <!-- Generator: Sketch 47.1 (45422) - http://www.bohemiancoding.com/sketch -->
    <title>bt question-circle</title>
    <desc>Created with Sketch.</desc>
    <defs></defs>
    <g id="Symbols" stroke="none" stroke-width="1" fill="none" fill-rule="evenodd">
        <g id="bt-question-circle">
            <circle id="Oval-2" fill="#67B1EC" cx="10" cy="10" r="10"></circle>
            <path d="M8.65625,12.78125 C8.66145836,12.0364546 8.747395,11.5039079 8.9140625,11.1835938 C9.08073,10.8632796 9.45051797,10.4609399 10.0234375,9.9765625 C10.4296895,9.58072719 10.752603,9.20182473 10.9921875,8.83984375 C11.231772,8.47786277 11.3515625,8.07812719 11.3515625,7.640625 C11.3515625,7.13541414 11.2148451,6.74349098 10.9414062,6.46484375 C10.6679674,6.18619652 10.2786484,6.046875 9.7734375,6.046875 C9.34114367,6.046875 8.97395984,6.1653634 8.671875,6.40234375 C8.36979016,6.6393241 8.21875,6.98958102 8.21875,7.453125 L6.390625,7.453125 L6.3671875,7.40625 C6.35156242,6.47916203 6.66275723,5.75651301 7.30078125,5.23828125 C7.93880527,4.72004949 8.76301578,4.4609375 9.7734375,4.4609375 C10.867193,4.4609375 11.720049,4.73958055 12.3320312,5.296875 C12.9440135,5.85416945 13.25,6.62759922 13.25,7.6171875 C13.25,8.27864914 13.0585957,8.89192426 12.6757812,9.45703125 C12.2929668,10.0221382 11.8098988,10.5390602 11.2265625,11.0078125 C10.929686,11.2682305 10.74349,11.5156238 10.6679688,11.75 C10.5924475,11.9843762 10.5546875,12.3281227 10.5546875,12.78125 L8.65625,12.78125 Z M10.5859375,16 L8.6484375,16 L8.6484375,14.1796875 L10.5859375,14.1796875 L10.5859375,16 Z" id="?" fill="#FFFFFF"></path>
        </g>
    </g>
</svg>