<?xml version="1.0" encoding="UTF-8"?>
<svg width="252px" height="55px" viewBox="0 0 252 55" version="1.1" xmlns="http://www.w3.org/2000/svg" xmlns:xlink="http://www.w3.org/1999/xlink">
    <!-- Generator: Sketch 47.1 (45422) - http://www.bohemiancoding.com/sketch -->
    <title>zaboruz_logo</title>
    <desc>Created with Sketch.</desc>
    <defs>
        <linearGradient x1="50%" y1="0%" x2="50%" y2="100%" id="linearGradient-1">
            <stop stop-color="#489DE0" offset="0%"></stop>
            <stop stop-color="#2F88CF" offset="100%"></stop>
        </linearGradient>
        <linearGradient x1="50%" y1="3.37611607%" x2="50%" y2="100%" id="linearGradient-2">
            <stop stop-color="#F1BF00" offset="0%"></stop>
            <stop stop-color="#DF8B00" offset="100%"></stop>
        </linearGradient>
    </defs>
    <g id="Symbols" stroke="none" stroke-width="1" fill="none" fill-rule="evenodd">
        <g id="zaboruz_logo">
            <path d="M94.4244929,20.7748184 C94.4244929,22.5956508 93.7752723,24.1000748 92.4768117,25.2881356 C91.1783511,26.4761964 89.4189634,27.2316368 87.1985957,27.5544794 L87.1985957,27.6707022 C89.8085016,27.9289763 91.811347,28.6456761 93.2071922,29.8208232 C94.6030373,30.9959704 95.3009494,32.5262214 95.3009494,34.4116223 C95.3009494,37.0201906 94.2394738,39.0798956 92.1164907,40.590799 C89.9935076,42.1017025 87.0557846,42.8571429 83.3032334,42.8571429 C79.1221902,42.8571429 75.7657199,42.3470592 73.2337217,41.3268765 L73.2337217,36.2905569 C74.4542747,36.8716736 75.8858061,37.3268749 77.5283587,37.6561743 C79.1709114,37.9854738 80.706318,38.1501211 82.1346247,38.1501211 C86.9259443,38.1501211 89.3215682,36.7619186 89.3215682,33.9854722 C89.3215682,32.7328428 88.5522418,31.7707862 87.013566,31.0992736 C85.4748902,30.427761 83.1993721,30.0920097 80.1869435,30.0920097 L77.5186203,30.0920097 L77.5186203,25.4043584 L79.9142682,25.4043584 C82.9266968,25.4043584 85.1210623,25.1202611 86.4974305,24.5520581 C87.8737988,23.9838551 88.5619726,23.0411688 88.5619726,21.7239709 C88.5619726,20.7554431 88.1302409,19.9838608 87.2667646,19.409201 C86.4032883,18.8345411 85.1080933,18.5472155 83.3811406,18.5472155 C80.7063118,18.5472155 78.1224139,19.3155694 75.6293696,20.8523002 L73,16.842615 C74.6230758,15.7707775 76.3435103,14.9862817 78.1613551,14.4891041 C79.9792,13.9919265 81.9982759,13.7433414 84.2186435,13.7433414 C87.3219644,13.7433414 89.7987409,14.3890169 91.6490472,15.6803874 C93.4993536,16.9717579 94.4244929,18.6698846 94.4244929,20.7748184 Z M113.161965,42.4697337 L112.012833,39.5254237 L111.857018,39.5254237 C110.857204,40.7780531 109.828189,41.6464867 108.769944,42.1307506 C107.711698,42.6150145 106.332105,42.8571429 104.631121,42.8571429 C102.5406,42.8571429 100.894826,42.2631214 99.6937495,41.0750605 C98.4926735,39.8869997 97.8921444,38.1953298 97.8921444,36 C97.8921444,33.7013606 98.700424,32.0064623 100.317007,30.9152542 C101.933591,29.8240462 104.371414,29.2203396 107.63055,29.1041162 L111.409052,28.9878935 L111.409052,28.0387409 C111.409052,25.8434111 110.279408,24.7457627 108.020087,24.7457627 C106.280149,24.7457627 104.235105,25.2687599 101.884891,26.31477 L99.9177329,22.3244552 C102.423762,21.020171 105.202426,20.3680387 108.253808,20.3680387 C111.175345,20.3680387 113.415156,21.0008008 114.973308,22.2663438 C116.531461,23.5318869 117.310526,25.456 117.310526,28.0387409 L117.310526,42.4697337 L113.161965,42.4697337 Z M111.409052,32.4358354 L109.110788,32.5133172 C107.383835,32.564972 106.098379,32.8748963 105.254379,33.4430993 C104.41038,34.0113023 103.988386,34.8765075 103.988386,36.0387409 C103.988386,37.7046088 104.949233,38.5375303 106.870955,38.5375303 C108.247323,38.5375303 109.347752,38.1436682 110.172274,37.3559322 C110.996797,36.5681962 111.409052,35.5222018 111.409052,34.2179177 L111.409052,32.4358354 Z M121.304051,29.4915254 C121.304051,24.5197492 122.255159,20.7457756 124.157404,18.1694915 C126.059649,15.5932075 129.029833,13.9628767 133.068045,13.2784504 C135.028721,12.942694 137.956706,12.5165482 141.852088,12 L142.533776,17.1525424 C140.845777,17.3462479 137.85287,17.7594803 133.554966,18.3922518 C131.918905,18.6505259 130.698371,19.0379312 129.893325,19.5544794 C129.08828,20.0710276 128.487751,20.8070977 128.09172,21.7627119 C127.69569,22.718326 127.452232,23.9903068 127.36134,25.5786925 L127.653492,25.5786925 C128.341676,24.5197687 129.250585,23.7062175 130.380245,23.1380145 C131.509906,22.5698115 132.723949,22.2857143 134.022409,22.2857143 C136.710223,22.2857143 138.800713,23.1024938 140.293943,24.7360775 C141.787172,26.3696611 142.533776,28.710235 142.533776,31.7578692 C142.533776,35.2703969 141.58916,37.9983761 139.6999,39.9418886 C137.81064,41.8854012 135.204019,42.8571429 131.87996,42.8571429 C128.555901,42.8571429 125.962265,41.6723282 124.098974,39.3026634 C122.235683,36.9329986 121.304051,33.662652 121.304051,29.4915254 Z M132.230543,38.0726392 C135.048202,38.0726392 136.457011,36.1420693 136.457011,32.2808717 C136.457011,28.5229836 135.184538,26.6440678 132.639556,26.6440678 C131.938387,26.6440678 131.240475,26.8054867 130.545798,27.1283293 C129.851122,27.4511719 129.214886,27.8740894 128.637071,28.3970944 C128.059256,28.9200995 127.634016,29.446325 127.36134,29.9757869 C127.36134,32.597269 127.783333,34.6020915 128.627332,35.9903148 C129.471332,37.378538 130.67239,38.0726392 132.230543,38.0726392 Z M151.377028,31.6029056 C151.377028,33.7465805 151.730853,35.3672262 152.438514,36.464891 C153.146175,37.5625559 154.298541,38.1113801 155.895648,38.1113801 C157.47977,38.1113801 158.619152,37.5657843 159.313828,36.4745763 C160.008505,35.3833682 160.355838,33.7594942 160.355838,31.6029056 C160.355838,29.4592306 160.005259,27.8514985 159.30409,26.779661 C158.602921,25.7078235 157.453801,25.1719128 155.856694,25.1719128 C154.272572,25.1719128 153.129944,25.7045952 152.428775,26.7699758 C151.727607,27.8353564 151.377028,29.4463169 151.377028,31.6029056 Z M166.432603,31.6029056 C166.432603,35.1283469 165.497725,37.8853815 163.627942,39.874092 C161.758159,41.8628025 159.154784,42.8571429 155.817741,42.8571429 C153.727219,42.8571429 151.883433,42.4019416 150.286326,41.4915254 C148.68922,40.5811092 147.462193,39.2736163 146.605209,37.5690073 C145.748225,35.8643983 145.319739,33.8757176 145.319739,31.6029056 C145.319739,28.0645505 146.248124,25.3139727 148.104923,23.3510896 C149.961722,21.3882065 152.571588,20.4067797 155.934601,20.4067797 C158.025123,20.4067797 159.868909,20.8587525 161.466016,21.7627119 C163.063123,22.6666712 164.290149,23.964479 165.147133,25.6561743 C166.004117,27.3478696 166.432603,29.3300936 166.432603,31.6029056 Z M182.501752,42.8571429 C179.943784,42.8571429 177.937693,41.9338268 176.483417,40.0871671 L176.171788,40.0871671 C176.379542,41.8950857 176.483417,42.9410801 176.483417,43.2251816 L176.483417,52 L170.542989,52 L170.542989,20.8135593 L175.373239,20.8135593 L176.210742,23.622276 L176.483417,23.622276 C177.87277,21.4786011 179.930799,20.4067797 182.657566,20.4067797 C185.228518,20.4067797 187.241102,21.3946632 188.695378,23.37046 C190.149654,25.3462569 190.876781,28.0903779 190.876781,31.6029056 C190.876781,33.9144587 190.53594,35.9225096 189.854248,37.6271186 C189.172556,39.3317277 188.201972,40.6295355 186.942465,41.5205811 C185.682958,42.4116267 184.202735,42.8571429 182.501752,42.8571429 Z M180.748839,25.1331719 C179.281578,25.1331719 178.210364,25.5819164 177.535165,26.4794189 C176.859965,27.3769214 176.509386,28.8587467 176.483417,30.9249395 L176.483417,31.5641646 C176.483417,33.8886315 176.83075,35.5544744 177.525426,36.5617433 C178.220103,37.5690123 179.320532,38.0726392 180.826746,38.0726392 C183.48859,38.0726392 184.819492,35.8902559 184.819492,31.5254237 C184.819492,29.3946625 184.491636,27.7966155 183.835913,26.7312349 C183.180191,25.6658542 182.151176,25.1331719 180.748839,25.1331719 Z M191.481341,20.8135593 L197.986596,20.8135593 L202.096203,32.9975787 C202.446788,34.0565025 202.686999,35.309113 202.816845,36.7554479 L202.933706,36.7554479 C203.076537,35.4253364 203.355702,34.1727258 203.771209,32.9975787 L207.802909,20.8135593 L214.171827,20.8135593 L204.959295,45.2397094 C204.115295,47.4996077 202.910991,49.1912777 201.346346,50.31477 C199.781701,51.4382623 197.954145,52 195.863624,52 C194.83784,52 193.831548,51.8902352 192.844718,51.6707022 L192.844718,46.9830508 C193.558871,47.150929 194.337936,47.2348668 195.181935,47.2348668 C196.233688,47.2348668 197.152335,46.9152574 197.937904,46.2760291 C198.723473,45.6368007 199.336986,44.6715157 199.778463,43.3801453 L200.129045,42.31477 L191.481341,20.8135593 Z M221.9049,29.1428571 C224.151237,29.1428571 225.745073,28.962068 226.686457,28.6004843 C227.627841,28.2389005 228.098526,27.6642493 228.098526,26.8765133 C228.098526,26.1791733 227.754439,25.6561761 227.066255,25.3075061 C226.378071,24.958836 225.241935,24.7845036 223.657813,24.7845036 C222.657998,24.7845036 221.525108,24.907182 220.259109,25.1525424 C218.99311,25.3979028 217.840744,25.733654 216.801975,26.1598063 L215.049062,22.0338983 C216.59423,21.4527816 218.09393,21.0363209 219.548206,20.7845036 C221.002482,20.5326864 222.625533,20.4067797 224.417409,20.4067797 C227.131191,20.4067797 229.30608,20.9233201 230.942141,21.9564165 C232.578201,22.9895128 233.396219,24.3906288 233.396219,26.1598063 C233.396219,28.6004965 231.948457,30.1888583 229.05289,30.9249395 L229.05289,31.1186441 C230.831781,31.55771 232.101007,32.1807869 232.860607,32.9878935 C233.620206,33.795 234,34.8506795 234,36.1549637 C234,37.4721615 233.571514,38.6408343 232.71453,39.6610169 C231.857546,40.6811996 230.617535,41.4689238 228.994459,42.0242131 C227.371384,42.5795024 225.462675,42.8571429 223.268277,42.8571429 C219.632587,42.8571429 216.840939,42.4116267 214.893248,41.5205811 L214.893248,36.6392252 C216.009924,37.1557734 217.233705,37.562549 218.564627,37.8595642 C219.895549,38.1565794 221.184252,38.3050847 222.430774,38.3050847 C224.36548,38.3050847 225.813242,38.0887834 226.774103,37.6561743 C227.734964,37.2235652 228.215387,36.6069451 228.215387,35.8062954 C228.215387,34.9281635 227.708995,34.2792596 226.696196,33.8595642 C225.683396,33.4398688 224.125267,33.2300242 222.021761,33.2300242 L219.723497,33.2300242 L219.723497,29.1428571 L221.9049,29.1428571 Z" id="Заборуз" fill="#000000"></path>
            <path d="M50,10 L53,10 L53,53 L51.5,53 L7.5,53 L6,53 L6,10 L9,10 L9,21 L17,21 L17,13 L20,13 L20,21 L28,21 L28,13 L31,13 L31,21 L39,21 L39,13 L42,13 L42,21 L50,21 L50,10 Z M9,50 L17,50 L17,43 L9,43 L9,50 Z M9,24 L9,40 L17,40 L17,24 L9,24 Z M50,40 L50,24 L42,24 L42,40 L50,40 Z M50,43 L42,43 L42,50 L50,50 L50,43 Z M39,40 L39,24 L31,24 L31,40 L39,40 Z M39,43 L31,43 L31,50 L39,50 L39,43 Z M28,40 L28,24 L20,24 L20,40 L28,40 Z M28,43 L20,43 L20,50 L28,50 L28,43 Z" id="Combined-Shape" fill="url(#linearGradient-1)"></path>
            <circle id="Oval-9" fill="url(#linearGradient-2)" cx="7.5" cy="5.5" r="3.5"></circle>
            <circle id="Oval-9" fill="url(#linearGradient-2)" cx="51.5" cy="5.5" r="3.5"></circle>
        </g>
    </g>
</svg>