<?xml version="1.0" encoding="UTF-8"?>
<svg width="122px" height="26px" viewBox="0 0 122 26" version="1.1" xmlns="http://www.w3.org/2000/svg" xmlns:xlink="http://www.w3.org/1999/xlink">
    <!-- Generator: Sketch 47.1 (45422) - http://www.bohemiancoding.com/sketch -->
    <title>zaboruz_logo</title>
    <desc>Created with Sketch.</desc>
    <defs></defs>
    <g id="Symbols" stroke="none" stroke-width="1" fill="none" fill-rule="evenodd">
        <g id="top-320" transform="translate(-62.000000, -8.000000)" fill="#FFFFFF">
            <g id="zaboruz_logo">
                <g transform="translate(62.000000, 7.000000)">
                    <path d="M48.7588056,10.7545455 C48.7588056,11.6892092 48.4222535,12.4614553 47.7491393,13.0713068 C47.0760251,13.6811584 46.1639689,14.0689386 45.0129436,14.2346591 L45.0129436,14.2943182 C46.3659032,14.4268946 47.4041664,14.7947887 48.1277642,15.3980114 C48.851362,16.0012341 49.2131555,16.7867376 49.2131555,17.7545455 C49.2131555,19.0935673 48.6628928,20.1508484 47.562351,20.9264205 C46.4618092,21.7019925 44.9389111,22.0897727 42.993611,22.0897727 C40.8261831,22.0897727 39.0862089,21.8279382 37.7736361,21.3042614 L37.7736361,18.7190341 C38.4063635,19.017331 39.1484608,19.2509935 39.9999503,19.4200284 C40.8514399,19.5890633 41.6473855,19.6735795 42.3878112,19.6735795 C44.8716027,19.6735795 46.1134799,18.960992 46.1134799,17.5357955 C46.1134799,16.8927998 45.7146657,16.3989601 44.9170253,16.0542614 C44.1193849,15.7095627 42.9397699,15.5372159 41.3781449,15.5372159 L39.994902,15.5372159 L39.994902,13.1309659 L41.2367916,13.1309659 C42.7984166,13.1309659 43.9359626,12.985134 44.6494637,12.6934659 C45.3629648,12.4017978 45.71971,11.9179011 45.71971,11.2417614 C45.71971,10.7445998 45.4959029,10.3485337 45.0482819,10.0535511 C44.6006609,9.7585686 43.9292396,9.61107955 43.0339976,9.61107955 C41.6473823,9.61107955 40.307905,10.0054885 39.0155257,10.7943182 L37.6524762,8.73607955 C38.493869,8.1858874 39.385732,7.78319256 40.3280919,7.52798295 C41.2704518,7.27277335 42.3171288,7.14517045 43.4681541,7.14517045 C45.0768972,7.14517045 46.3608433,7.47660653 47.3200311,8.13948864 C48.2792189,8.80237074 48.7588056,9.67404763 48.7588056,10.7545455 Z M58.4721994,21.8909091 L57.8764963,20.3795455 L57.795723,20.3795455 C57.277425,21.0225411 56.74399,21.4683226 56.1954019,21.7169034 C55.6468138,21.9654842 54.9316406,22.0897727 54.049861,22.0897727 C52.966147,22.0897727 52.1129875,21.7848515 51.4903569,21.175 C50.8677262,20.5651485 50.5564155,19.6967859 50.5564155,18.5698864 C50.5564155,17.3899562 50.9754228,16.5199365 51.8134501,15.9598011 C52.6514773,15.3996658 53.9152303,15.089773 55.6047471,15.0301136 L57.5634997,14.9704545 L57.5634997,14.4832386 C57.5634997,13.3563391 56.9778991,12.7928977 55.8066803,12.7928977 C54.9047073,12.7928977 53.8445682,13.061361 52.6262315,13.5982955 L51.6064685,11.55 C52.905579,10.8804891 54.3460218,10.5457386 55.9278403,10.5457386 C57.4423473,10.5457386 58.603452,10.870546 59.4111891,11.5201705 C60.2189262,12.1697949 60.6227887,13.1574744 60.6227887,14.4832386 L60.6227887,21.8909091 L58.4721994,21.8909091 Z M57.5634997,16.7403409 L56.3720935,16.7801136 C55.4768515,16.8066289 54.8104784,16.9657182 54.3729542,17.2573864 C53.9354299,17.5490545 53.7166711,17.9931788 53.7166711,18.5897727 C53.7166711,19.4448906 54.2147681,19.8724432 55.2109772,19.8724432 C55.9244783,19.8724432 56.4949341,19.6702672 56.9223616,19.2659091 C57.3497892,18.861551 57.5634997,18.3246246 57.5634997,17.6551136 L57.5634997,16.7403409 Z M62.6930085,15.2289773 C62.6930085,12.6768812 63.1860572,10.7396373 64.1721696,9.4171875 C65.158282,8.09473771 66.6980077,7.25786161 68.791393,6.90653409 C69.8077955,6.73418474 71.3256453,6.51543693 73.3449881,6.25028409 L73.6983713,8.89517045 C72.8233228,8.99460277 71.2718177,9.20672186 69.0438096,9.53153409 C68.1956856,9.66411051 67.5629677,9.86297216 67.1456369,10.128125 C66.7283061,10.3932778 66.4169954,10.771115 66.2116956,11.2616477 C66.0063957,11.7521805 65.8801887,12.4051096 65.8330707,13.2204545 L65.9845206,13.2204545 C66.3412712,12.6768912 66.8124441,12.2592818 67.3980535,11.9676136 C67.9836629,11.6759455 68.6130152,11.5301136 69.2861295,11.5301136 C70.679476,11.5301136 71.7631736,11.9493803 72.537255,12.7879261 C73.3113364,13.626472 73.6983713,14.8279278 73.6983713,16.3923295 C73.6983713,18.1953689 73.208688,19.5956863 72.2293068,20.5933239 C71.2499256,21.5909614 69.898669,22.0897727 68.1754965,22.0897727 C66.4523241,22.0897727 65.1077986,21.4815875 64.1418796,20.2651989 C63.1759607,19.0488102 62.6930085,17.3700865 62.6930085,15.2289773 Z M68.3572365,19.6338068 C69.8178944,19.6338068 70.5482124,18.6428129 70.5482124,16.6607955 C70.5482124,14.7318085 69.8885703,13.7673295 68.5692664,13.7673295 C68.2057847,13.7673295 67.8439912,13.8501886 67.4838751,14.0159091 C67.123759,14.1816296 66.793938,14.3987202 66.4944021,14.6671875 C66.1948663,14.9356548 65.9744247,15.2057752 65.8330707,15.4775568 C65.8330707,16.8232075 66.0518295,17.8523165 66.4893538,18.5649148 C66.9268781,19.277513 67.5494994,19.6338068 68.3572365,19.6338068 Z M78.2826602,16.3127841 C78.2826602,17.4131684 78.4660811,18.2450729 78.8329283,18.8085227 C79.1997756,19.3719725 79.7971555,19.6536932 80.6250861,19.6536932 C81.4462854,19.6536932 82.0369343,19.3736297 82.3970504,18.8134943 C82.7571666,18.2533589 82.9372219,17.4197972 82.9372219,16.3127841 C82.9372219,15.2123998 82.7554838,14.387124 82.3920021,13.8369318 C82.0285204,13.2867397 81.4328232,13.0116477 80.6048927,13.0116477 C79.7836934,13.0116477 79.1913617,13.2850825 78.82788,13.8319602 C78.4643983,14.378838 78.2826602,15.205771 78.2826602,16.3127841 Z M86.0873808,16.3127841 C86.0873808,18.1224522 85.6027458,19.5376843 84.6334613,20.5585227 C83.6641768,21.5793612 82.314603,22.0897727 80.5846994,22.0897727 C79.5009855,22.0897727 78.5451776,21.8561103 77.7172471,21.3887784 C76.8893166,20.9214465 76.2532331,20.2502885 75.8089777,19.3752841 C75.3647223,18.5002797 75.142598,17.4794566 75.142598,16.3127841 C75.142598,14.4964871 75.6238674,13.0845694 76.5864208,12.0769886 C77.5489742,11.0694078 78.9019135,10.565625 80.6452794,10.565625 C81.7289933,10.565625 82.6848012,10.7976303 83.5127317,11.2616477 C84.3406622,11.7256652 84.9767456,12.3918517 85.421001,13.2602273 C85.8652564,14.1286028 86.0873808,15.1461116 86.0873808,16.3127841 Z M94.4175318,22.0897727 C93.0914967,22.0897727 92.0515508,21.6158191 91.2976628,20.6678977 L91.1361162,20.6678977 C91.2438145,21.5959327 91.2976628,22.1328591 91.2976628,22.2786932 L91.2976628,26.7829545 L88.2181806,26.7829545 L88.2181806,10.7744318 L90.722153,10.7744318 L91.1563096,12.2161932 L91.2976628,12.2161932 C92.0178951,11.1158089 93.0847652,10.565625 94.4983051,10.565625 C95.8310713,10.565625 96.8743827,11.0727222 97.6282706,12.0869318 C98.3821586,13.1011414 98.7590969,14.5097448 98.7590969,16.3127841 C98.7590969,17.4993431 98.5824071,18.5301093 98.2290221,19.4051136 C97.8756371,20.280118 97.3724918,20.9463045 96.7195709,21.4036932 C96.0666501,21.8610818 95.2993114,22.0897727 94.4175318,22.0897727 Z M93.5088321,12.9917614 C92.748213,12.9917614 92.1929021,13.2221094 91.8428827,13.6828125 C91.4928632,14.1435156 91.3111251,14.9041614 91.2976628,15.9647727 L91.2976628,16.2928977 C91.2976628,17.4860855 91.4777182,18.3411906 91.8378343,18.8582386 C92.1979504,19.3752867 92.7684062,19.6338068 93.5492187,19.6338068 C94.9291029,19.6338068 95.6190347,18.5135529 95.6190347,16.2730114 C95.6190347,15.1792559 95.4490759,14.3589516 95.1091532,13.8120739 C94.7692305,13.2651961 94.2357955,12.9917614 93.5088321,12.9917614 Z M99.0724973,10.7744318 L102.444783,10.7744318 L104.575179,17.0286932 C104.75692,17.5722565 104.881444,18.2152425 104.948755,18.9576705 L105.009335,18.9576705 C105.083378,18.2749019 105.228095,17.6319159 105.443492,17.0286932 L107.533501,10.7744318 L110.83511,10.7744318 L106.059388,23.3127841 C105.621864,24.4728278 104.99756,25.3411903 104.186457,25.9178977 C103.375355,26.4946052 102.42796,26.7829545 101.344247,26.7829545 C100.812486,26.7829545 100.290831,26.7266104 99.7792637,26.6139205 L99.7792637,24.2076705 C100.149477,24.2938451 100.553339,24.3369318 100.990863,24.3369318 C101.536086,24.3369318 102.012307,24.172871 102.419541,23.8447443 C102.826775,23.5166177 103.144817,23.0211207 103.373676,22.3582386 L103.555416,21.8113636 L99.0724973,10.7744318 Z M114.843889,15.05 C116.008377,15.05 116.834612,14.9571979 117.32262,14.7715909 C117.810628,14.5859839 118.054628,14.2910058 118.054628,13.8866477 C118.054628,13.5286914 117.876255,13.2602282 117.519505,13.08125 C117.162754,12.9022718 116.573788,12.8127841 115.752589,12.8127841 C115.234291,12.8127841 114.647007,12.8757569 113.990721,13.0017045 C113.334435,13.1276521 112.737055,13.2999989 112.198563,13.51875 L111.289864,11.4008523 C112.09087,11.1025553 112.868305,10.8887791 113.622193,10.759517 C114.376081,10.630255 115.217461,10.565625 116.146359,10.565625 C117.553167,10.565625 118.680617,10.8307739 119.528741,11.3610795 C120.376865,11.8913852 120.80092,12.6106015 120.80092,13.51875 C120.80092,14.7715972 120.050409,15.5869299 118.549364,15.9647727 L118.549364,16.0642045 C119.471531,16.2895845 120.12949,16.6094203 120.523262,17.0237216 C120.917034,17.4380229 121.113917,17.9799209 121.113917,18.6494318 C121.113917,19.3255716 120.891792,19.9254709 120.447537,20.4491477 C120.003282,20.9728246 119.360467,21.3771766 118.519074,21.6622159 C117.677682,21.9472552 116.688218,22.0897727 115.550655,22.0897727 C113.665936,22.0897727 112.218762,21.8610818 111.20909,21.4036932 L111.20909,18.8980114 C111.787969,19.1631642 112.422369,19.3719689 113.112311,19.5244318 C113.802253,19.6768947 114.470309,19.753125 115.116499,19.753125 C116.119439,19.753125 116.86995,19.6420939 117.368055,19.4200284 C117.866159,19.1979629 118.115208,18.8814414 118.115208,18.4704545 C118.115208,18.0196947 117.852697,17.6866015 117.327668,17.4711648 C116.802639,17.2557281 115.994914,17.1480114 114.904469,17.1480114 L113.713063,17.1480114 L113.713063,15.05 L114.843889,15.05 Z" id="Заборуз"></path>
                    <path d="M23.779661,4.41034843 C23.1683823,4.12437579 22.7457627,3.5107917 22.7457627,2.8 C22.7457627,1.81592899 23.5558238,1.01818182 24.5550847,1.01818182 C25.5543457,1.01818182 26.3644068,1.81592899 26.3644068,2.8 C26.3644068,3.5107917 25.9417872,4.12437579 25.3305085,4.41034843 L25.3305085,26.9818182 L25.1458398,26.9818182 L25.1458398,26.9936055 L1.21856703,26.9936055 L1.21856703,26.9818182 L1.03389831,26.9818182 L1.03389831,4.41034843 C0.422619545,4.12437579 0,3.5107917 0,2.8 C0,1.81592899 0.810061067,1.01818182 1.80932203,1.01818182 C2.808583,1.01818182 3.61864407,1.81592899 3.61864407,2.8 C3.61864407,3.5107917 3.19602452,4.12437579 2.58474576,4.41034843 L2.58474576,10.6791217 L6.72033898,10.6791217 L6.72033898,6.61818182 L8.27118644,6.61818182 L8.27118644,10.6791217 L12.4067797,10.6791217 L12.4067797,6.61818182 L13.9576271,6.61818182 L13.9576271,10.6791217 L18.0932203,10.6791217 L18.0932203,6.61818182 L19.6440678,6.61818182 L19.6440678,10.6791217 L23.779661,10.6791217 L23.779661,4.41034843 Z M2.58474576,25.4427581 L6.72033898,25.4427581 L6.72033898,21.9026965 L2.58474576,21.9026965 L2.58474576,25.4427581 Z M2.58474576,12.2299692 L2.58474576,20.351849 L6.72033898,20.351849 L6.72033898,12.2299692 L2.58474576,12.2299692 Z M23.779661,20.351849 L23.779661,12.2299692 L19.6440678,12.2299692 L19.6440678,20.351849 L23.779661,20.351849 Z M23.779661,21.9026965 L19.6440678,21.9026965 L19.6440678,25.4427581 L23.779661,25.4427581 L23.779661,21.9026965 Z M18.0932203,20.351849 L18.0932203,12.2299692 L13.9576271,12.2299692 L13.9576271,20.351849 L18.0932203,20.351849 Z M18.0932203,21.9026965 L13.9576271,21.9026965 L13.9576271,25.4427581 L18.0932203,25.4427581 L18.0932203,21.9026965 Z M12.4067797,20.351849 L12.4067797,12.2299692 L8.27118644,12.2299692 L8.27118644,20.351849 L12.4067797,20.351849 Z M12.4067797,21.9026965 L8.27118644,21.9026965 L8.27118644,25.4427581 L12.4067797,25.4427581 L12.4067797,21.9026965 Z" id="Combined-Shape"></path>
                </g>
            </g>
        </g>
    </g>
</svg>