<?xml version="1.0" encoding="UTF-8"?>
<svg width="236px" height="55px" viewBox="0 0 236 55" version="1.1" xmlns="http://www.w3.org/2000/svg" xmlns:xlink="http://www.w3.org/1999/xlink">
    <!-- Generator: Sketch 47.1 (45422) - http://www.bohemiancoding.com/sketch -->
    <title>zaboruz_logo</title>
    <desc>Created with Sketch.</desc>
    <defs></defs>
    <g id="Symbols" stroke="none" stroke-width="1" fill="none" fill-rule="evenodd">
        <g id="zaboruz_logo" fill="#FFFFFF">
            <path d="M94.3203125,21.125 C94.3203125,22.9609467 93.6692773,24.4778586 92.3671875,25.6757812 C91.0650977,26.8737039 89.3007924,27.635415 87.0742188,27.9609375 L87.0742188,28.078125 C89.6914193,28.338543 91.6998628,29.061192 93.0996094,30.2460938 C94.499356,31.4309955 95.1992188,32.9739488 95.1992188,34.875 C95.1992188,37.5052215 94.1347763,39.5820236 92.0058594,41.1054688 C89.8769425,42.6289139 86.9310084,43.390625 83.1679688,43.390625 C78.9752395,43.390625 75.6093877,42.8763072 73.0703125,41.8476562 L73.0703125,36.7695312 C74.294277,37.3554717 75.7298095,37.8144515 77.3769531,38.1464844 C79.0240968,38.4785173 80.5637949,38.6445312 81.9960938,38.6445312 C86.8008053,38.6445312 89.203125,37.2448057 89.203125,34.4453125 C89.203125,33.1822854 88.4316483,32.212243 86.8886719,31.5351562 C85.3456954,30.8580695 83.0638172,30.5195312 80.0429688,30.5195312 L77.3671875,30.5195312 L77.3671875,25.7929688 L79.7695312,25.7929688 C82.7903797,25.7929688 84.9908785,25.5065133 86.3710938,24.9335938 C87.751309,24.3606742 88.4414062,23.4101629 88.4414062,22.0820312 C88.4414062,21.1054639 88.0084679,20.3274769 87.1425781,19.7480469 C86.2766884,19.1686169 84.9778732,18.8789062 83.2460938,18.8789062 C80.5637887,18.8789062 77.9726687,19.6536381 75.4726562,21.203125 L72.8359375,17.1601562 C74.4635498,16.0794217 76.188793,15.288414 78.0117188,14.7871094 C79.8346445,14.2858048 81.8593639,14.0351563 84.0859375,14.0351563 C87.1979322,14.0351563 89.6816313,14.6861914 91.5371094,15.9882813 C93.3925874,17.2903711 94.3203125,19.0025936 94.3203125,21.125 Z M113.110156,43 L111.957812,40.03125 L111.801562,40.03125 C110.798953,41.2942771 109.767063,42.1699194 108.705859,42.6582031 C107.644656,43.1464868 106.261206,43.390625 104.555469,43.390625 C102.459104,43.390625 100.80873,42.7916727 99.6042969,41.59375 C98.3998638,40.3958273 97.7976562,38.6901152 97.7976562,36.4765625 C97.7976562,34.1588426 98.608195,32.4498753 100.229297,31.3496094 C101.850399,30.2493435 104.295036,29.6406256 107.563281,29.5234375 L111.352344,29.40625 L111.352344,28.4492188 C111.352344,26.235666 110.219543,25.1289062 107.953906,25.1289062 C106.209106,25.1289062 104.158345,25.6562447 101.801562,26.7109375 L99.8289062,22.6875 C102.34194,21.3723893 105.12837,20.7148438 108.188281,20.7148438 C111.117983,20.7148438 113.364055,21.3528582 114.926562,22.6289062 C116.48907,23.9049543 117.270312,25.8450391 117.270312,28.4492188 L117.270312,43 L113.110156,43 Z M111.352344,32.8828125 L109.047656,32.9609375 C107.315877,33.0130211 106.026827,33.325518 105.180469,33.8984375 C104.33411,34.471357 103.910937,35.3437441 103.910937,36.515625 C103.910937,38.1953209 104.87447,39.0351562 106.801562,39.0351562 C108.181778,39.0351562 109.285282,38.6380248 110.112109,37.84375 C110.938936,37.0494752 111.352344,35.9947982 111.352344,34.6796875 L111.352344,32.8828125 Z M121.275,29.9140625 C121.275,24.9010166 122.228766,21.0957161 124.136328,18.4980469 C126.04389,15.9003776 129.022376,14.2565139 133.071875,13.5664062 C135.038031,13.2278629 137.974199,12.7981797 141.880469,12.2773438 L142.564062,17.4726562 C140.871346,17.6679697 137.870074,18.0846322 133.560156,18.7226562 C131.919523,18.9830742 130.695577,19.3736953 129.888281,19.8945312 C129.080986,20.4153672 128.478778,21.1575473 128.081641,22.1210938 C127.684503,23.0846402 127.440365,24.3671795 127.349219,25.96875 L127.642187,25.96875 C128.332295,24.9010363 129.243744,24.080732 130.376562,23.5078125 C131.509381,22.934893 132.726816,22.6484375 134.028906,22.6484375 C136.724232,22.6484375 138.820565,23.471997 140.317969,25.1191406 C141.815372,26.7662843 142.564062,29.1262867 142.564062,32.1992188 C142.564062,35.7409031 141.616806,38.4915267 139.722266,40.4511719 C137.827725,42.4108171 135.213819,43.390625 131.880469,43.390625 C128.547119,43.390625 125.946233,42.1959755 124.077734,39.8066406 C122.209235,37.4173058 121.275,34.1198127 121.275,29.9140625 Z M132.232031,38.5664062 C135.057566,38.5664062 136.470312,36.6198111 136.470312,32.7265625 C136.470312,28.9374811 135.194284,27.0429688 132.642187,27.0429688 C131.939059,27.0429688 131.239196,27.2057275 130.542578,27.53125 C129.84596,27.8567725 129.207946,28.2832005 128.628516,28.8105469 C128.049086,29.3378933 127.622658,29.8684869 127.349219,30.4023438 C127.349219,33.0455861 127.772392,35.0670503 128.61875,36.4667969 C129.465108,37.8665435 130.669523,38.5664062 132.232031,38.5664062 Z M151.432031,32.0429688 C151.432031,34.2044379 151.786845,35.8385361 152.496484,36.9453125 C153.206123,38.0520889 154.361711,38.6054688 155.963281,38.6054688 C157.551831,38.6054688 158.694398,38.055344 159.391016,36.9550781 C160.087634,35.8548122 160.435937,34.2174588 160.435937,32.0429688 C160.435937,29.8814996 160.084378,28.2604221 159.38125,27.1796875 C158.678121,26.0989529 157.525789,25.5585938 155.924219,25.5585938 C154.335669,25.5585938 153.189847,26.0956978 152.486719,27.1699219 C151.78359,28.244146 151.432031,29.8684787 151.432031,32.0429688 Z M166.529687,32.0429688 C166.529687,35.597674 165.592197,38.3775941 163.717187,40.3828125 C161.842178,42.3880309 159.231527,43.390625 155.885156,43.390625 C153.788792,43.390625 151.939852,42.9316452 150.338281,42.0136719 C148.736711,41.0956985 147.506254,39.7773523 146.646875,38.0585938 C145.787496,36.3398352 145.357812,34.3346469 145.357812,32.0429688 C145.357812,28.4752426 146.288793,25.7018328 148.150781,23.7226562 C150.01277,21.7434797 152.629931,20.7539062 156.002344,20.7539062 C158.098708,20.7539062 159.947648,21.2096309 161.549219,22.1210938 C163.150789,23.0325566 164.381246,24.3411373 165.240625,26.046875 C166.100004,27.7526127 166.529687,29.7512906 166.529687,32.0429688 Z M182.64375,43.390625 C180.078633,43.390625 178.066934,42.4596447 176.608594,40.5976562 L176.296094,40.5976562 C176.504428,42.420582 176.608594,43.475259 176.608594,43.7617188 L176.608594,52.609375 L170.651562,52.609375 L170.651562,21.1640625 L175.495312,21.1640625 L176.335156,23.9960938 L176.608594,23.9960938 C178.00183,21.8346246 180.065611,20.7539062 182.8,20.7539062 C185.378138,20.7539062 187.396347,21.74999 188.854687,23.7421875 C190.313028,25.734385 191.042187,28.5012844 191.042187,32.0429688 C191.042187,34.3737096 190.700394,36.3984289 190.016797,38.1171875 C189.3332,39.8359461 188.359902,41.1445268 187.096875,42.0429688 C185.833848,42.9414107 184.349488,43.390625 182.64375,43.390625 Z M180.885937,25.5195312 C179.414576,25.5195312 178.340368,25.9720007 177.663281,26.8769531 C176.986194,27.7819056 176.634635,29.2760313 176.608594,31.359375 L176.608594,32.0039062 C176.608594,34.347668 176.956898,36.0273387 177.653516,37.0429688 C178.350134,38.0585988 179.453638,38.5664062 180.964062,38.5664062 C183.633347,38.5664062 184.967969,36.3659074 184.967969,31.9648438 C184.967969,29.8163955 184.639196,28.2050835 183.981641,27.1308594 C183.324085,26.0566353 182.292194,25.5195312 180.885937,25.5195312 Z M191.648437,21.1640625 L198.171875,21.1640625 L202.292969,33.4492188 C202.644533,34.5169324 202.885416,35.7799406 203.015625,37.2382812 L203.132812,37.2382812 C203.276042,35.8971287 203.555987,34.6341205 203.972656,33.4492188 L208.015625,21.1640625 L214.402344,21.1640625 L205.164062,45.7929688 C204.317704,48.071626 203.110034,49.7773381 201.541016,50.9101562 C199.971997,52.0429744 198.139333,52.609375 196.042969,52.609375 C195.014318,52.609375 194.005213,52.498699 193.015625,52.2773438 L193.015625,47.5507812 C193.731774,47.7200529 194.513017,47.8046875 195.359375,47.8046875 C196.414068,47.8046875 197.335282,47.4824251 198.123047,46.8378906 C198.910811,46.1933562 199.526039,45.2200586 199.96875,43.9179688 L200.320312,42.84375 L191.648437,21.1640625 Z M222.157031,29.5625 C224.409647,29.5625 226.007938,29.3802102 226.951953,29.015625 C227.895968,28.6510398 228.367969,28.0716186 228.367969,27.2773438 C228.367969,26.5742152 228.02292,26.0468768 227.332812,25.6953125 C226.642705,25.3437482 225.503393,25.1679688 223.914844,25.1679688 C222.912234,25.1679688 221.776178,25.2916654 220.506641,25.5390625 C219.237103,25.7864596 218.081516,26.1249979 217.039844,26.5546875 L215.282031,22.3945312 C216.831518,21.8085908 218.335409,21.3886731 219.79375,21.1347656 C221.252091,20.8808581 222.879678,20.7539062 224.676562,20.7539062 C227.39793,20.7539062 229.578898,21.2747344 231.219531,22.3164062 C232.860164,23.3580781 233.680469,24.7708244 233.680469,26.5546875 C233.680469,29.0156373 232.22866,30.6171838 229.325,31.359375 L229.325,31.5546875 C231.108863,31.997398 232.381637,32.625647 233.143359,33.4394531 C233.905082,34.2532593 234.285937,35.3177018 234.285937,36.6328125 C234.285937,37.9609441 233.856254,39.1393178 232.996875,40.1679688 C232.137496,41.1966197 230.894018,41.9908826 229.266406,42.5507812 C227.638794,43.1106799 225.724751,43.390625 223.524219,43.390625 C219.878367,43.390625 217.078916,42.9414107 215.125781,42.0429688 L215.125781,37.1210938 C216.245578,37.6419297 217.47278,38.0520818 218.807422,38.3515625 C220.142064,38.6510432 221.434369,38.8007812 222.684375,38.8007812 C224.624489,38.8007812 226.076297,38.5826845 227.039844,38.1464844 C228.00339,37.7102843 228.485156,37.0885457 228.485156,36.28125 C228.485156,35.3958289 227.977349,34.7415386 226.961719,34.3183594 C225.946089,33.8951802 224.383604,33.6835938 222.274219,33.6835938 L219.969531,33.6835938 L219.969531,29.5625 L222.157031,29.5625 Z" id="Заборуз"></path>
            <path d="M46,8.66318442 C44.8175263,8.10145245 44,6.89619798 44,5.5 C44,3.56700338 45.5670034,2 47.5,2 C49.4329966,2 51,3.56700338 51,5.5 C51,6.89619798 50.1824737,8.10145245 49,8.66318442 L49,53 L47.5,53 L3.5,53 L2,53 L2,8.66318442 C0.817526333,8.10145245 0,6.89619798 0,5.5 C0,3.56700338 1.56700338,2 3.5,2 C5.43299662,2 7,3.56700338 7,5.5 C7,6.89619798 6.18247367,8.10145245 5,8.66318442 L5,21 L13,21 L13,13 L16,13 L16,21 L24,21 L24,13 L27,13 L27,21 L35,21 L35,13 L38,13 L38,21 L46,21 L46,8.66318442 Z M5,50 L13,50 L13,43 L5,43 L5,50 Z M5,24 L5,40 L13,40 L13,24 L5,24 Z M46,40 L46,24 L38,24 L38,40 L46,40 Z M46,43 L38,43 L38,50 L46,50 L46,43 Z M35,40 L35,24 L27,24 L27,40 L35,40 Z M35,43 L27,43 L27,50 L35,50 L35,43 Z M24,40 L24,24 L16,24 L16,40 L24,40 Z M24,43 L16,43 L16,50 L24,50 L24,43 Z" id="Combined-Shape"></path>
        </g>
    </g>
</svg>