<?xml version="1.0" encoding="UTF-8"?>
<svg width="13px" height="13px" viewBox="0 0 13 13" version="1.1" xmlns="http://www.w3.org/2000/svg" xmlns:xlink="http://www.w3.org/1999/xlink">
    <!-- Generator: Sketch 47.1 (45422) - http://www.bohemiancoding.com/sketch -->
    <title>Fill 1</title>
    <desc>Created with Sketch.</desc>
    <defs></defs>
    <g id="Symbols" stroke="none" stroke-width="1" fill="none" fill-rule="evenodd">
        <g id="footer-320" transform="translate(-65.000000, -311.000000)" fill="#FFFFFF">
            <g id="Group-4">
                <g transform="translate(65.000000, 296.000000)">
                    <path d="M4.08263869,20.2942889 C2.59359164,21.7923514 6.24852531,25.4694403 7.73757236,23.9032575 L8.88819962,22.7456638 C9.22661941,22.4051951 9.70040711,22.4051951 10.0388269,22.7456638 L12.7461852,25.4694403 C13.0846049,25.8098825 13.0846049,26.2865387 12.7461852,26.6270075 L11.8662937,27.4441324 C10.4449306,28.8741277 6.78999696,27.4441324 3.67653495,24.31182 C0.495388979,21.1795076 -0.858290157,17.5024452 0.563072936,16.0724765 L1.37528042,15.2553516 C1.7137002,14.9148828 2.1874879,14.9148828 2.52590768,15.2553516 L5.23326596,17.9791015 C5.57168574,18.3195702 5.57168574,18.7962264 5.23326596,19.1366952 L4.08263869,20.2942889 Z" id="Fill-1"></path>
                </g>
            </g>
        </g>
    </g>
</svg>