<?xml version="1.0" encoding="UTF-8"?>
<svg width="10px" height="14px" viewBox="0 0 10 14" version="1.1" xmlns="http://www.w3.org/2000/svg" xmlns:xlink="http://www.w3.org/1999/xlink">
    <!-- Generator: Sketch 47.1 (45422) - http://www.bohemiancoding.com/sketch -->
    <title>Shape</title>
    <desc>Created with Sketch.</desc>
    <defs></defs>
    <g id="Symbols" stroke="none" stroke-width="1" fill="none" fill-rule="evenodd">
        <g id="footer-320" transform="translate(-68.000000, -183.000000)" fill-rule="nonzero" fill="#FFFFFF">
            <g id="Group-5">
                <g transform="translate(68.000000, 168.000000)">
                    <path d="M4.99979151,15 C2.24304002,15 0,17.24304 0,20.0000695 C0,20.71921 0.147191683,21.4058265 0.437266321,22.0410163 C1.68735319,24.7765021 4.08411748,27.6646003 4.78908085,28.4845094 C4.84189751,28.5458046 4.91889863,28.5811083 4.9999305,28.5811083 C5.08096238,28.5811083 5.1579635,28.5458046 5.21078016,28.4845094 C5.91546555,27.6647393 8.31222984,24.7767801 9.56273368,22.0410163 C9.85294731,21.4058265 10,20.71921 10,20.0000695 C9.99972202,17.24304 7.756682,15 4.99979151,15 Z M4.99979151,22.5971201 C3.56776516,22.5971201 2.40260192,21.4319569 2.40260192,19.9999305 C2.40260192,18.5677652 3.56776516,17.4026019 4.99979151,17.4026019 C6.43181787,17.4026019 7.59698111,18.5677652 7.59698111,19.9999305 C7.5971201,21.4319569 6.43195686,22.5971201 4.99979151,22.5971201 Z" id="Shape"></path>
                </g>
            </g>
        </g>
    </g>
</svg>