<?xml version="1.0" encoding="UTF-8"?>
<svg width="12px" height="13px" viewBox="0 0 12 13" version="1.1" xmlns="http://www.w3.org/2000/svg" xmlns:xlink="http://www.w3.org/1999/xlink">
    <!-- Generator: Sketch 47.1 (45422) - http://www.bohemiancoding.com/sketch -->
    <title>₽</title>
    <desc>Created with Sketch.</desc>
    <defs>
        <linearGradient x1="50%" y1="3.37611607%" x2="50%" y2="100%" id="linearGradient-1">
            <stop stop-color="#F1BF00" offset="0%"></stop>
            <stop stop-color="#DF8B00" offset="100%"></stop>
        </linearGradient>
    </defs>
    <g id="Calculator" stroke="none" stroke-width="1" fill="none" fill-rule="evenodd">
        <g id="Mobile" transform="translate(-44.000000, -3726.000000)" fill="url(#linearGradient-1)">
            <path d="M51.6996283,3737.49107 L48.9070632,3737.49107 L48.9070632,3739 L45.7754647,3739 L45.7754647,3737.49107 L44,3737.49107 L44,3735.08036 L45.7754647,3735.08036 L45.7754647,3734.58929 L44,3734.58929 L44,3732.16964 L45.7754647,3732.16964 L45.7754647,3726 L50.932342,3726 C51.9256555,3726 52.8074311,3726.18155 53.5776952,3726.54464 C54.3479592,3726.90774 54.9442358,3727.4241 55.3665428,3728.09375 C55.7888497,3728.7634 56,3729.52083 56,3730.36607 C56,3731.66965 55.5375511,3732.6994 54.6126394,3733.45536 C53.6877277,3734.21131 52.4401566,3734.58929 50.8698885,3734.58929 L48.9070632,3734.58929 L48.9070632,3735.08036 L51.6996283,3735.08036 L51.6996283,3737.49107 Z M48.9070632,3732.16964 L50.8252788,3732.16964 C52.1576275,3732.16964 52.8237918,3731.57441 52.8237918,3730.38393 C52.8237918,3729.80059 52.6572507,3729.33036 52.3241636,3728.97321 C51.9910764,3728.61607 51.5360624,3728.43452 50.9591078,3728.42857 L48.9070632,3728.42857 L48.9070632,3732.16964 Z" id="₽"></path>
        </g>
    </g>
</svg>