<?xml version="1.0" encoding="UTF-8"?>
<svg width="22px" height="21px" viewBox="0 0 22 21" version="1.1" xmlns="http://www.w3.org/2000/svg" xmlns:xlink="http://www.w3.org/1999/xlink">
    <!-- Generator: Sketch 47.1 (45422) - http://www.bohemiancoding.com/sketch -->
    <title>Combined Shape</title>
    <desc>Created with Sketch.</desc>
    <defs></defs>
    <g id="Calculator" stroke="none" stroke-width="1" fill="none" fill-rule="evenodd">
        <g id="Mobile-Table" transform="translate(-15.000000, -21.000000)" fill="#FFFFFF">
            <path d="M31.1312745,30.0458887 C32.3678728,30.2223349 33.4997465,30.839159 34.3186448,31.7826944 C35.1381885,32.7272438 35.5898133,33.9360938 35.5898133,35.1867045 L35.5898133,35.2433074 C35.5898133,36.356375 35.31823,37.466216 34.8043789,38.4536324 L33.3038488,41.3362321 C33.2054851,41.5256767 33.0125375,41.6344575 32.8130445,41.6344575 C32.7269417,41.6344575 32.6394561,41.6138997 32.5580549,41.5714015 C32.2869325,41.4306317 32.1813782,41.0968221 32.3225167,40.8256075 L33.823139,37.9430078 C34.2552201,37.1125861 34.4835676,36.1791913 34.4835676,35.2433074 L34.4835676,35.1867045 C34.4835676,33.1643953 32.9736345,31.4247317 30.971422,31.1402422 C30.9689329,31.1398735 30.9663517,31.1395047 30.9638626,31.139136 L27.6537912,30.6202146 C27.3624798,30.5744897 27.1604056,30.3087142 27.1899055,30.0185091 C27.1874165,29.9986889 27.1863102,29.9788686 27.1863102,29.9584031 L27.1863102,24.6463957 C27.1863102,24.0799979 26.7253745,23.6190622 26.1589767,23.6190622 L26.1268956,23.6190622 C25.5604978,23.6190622 25.0999309,24.0799979 25.0999309,24.6463957 L25.0999309,33.4409567 C25.0999309,33.4780159 25.0963356,33.5155361 25.0884075,33.5525953 C25.0771606,33.6079998 25.0574326,33.6606386 25.0307905,33.7084838 C25.0278405,33.713554 25.024614,33.7186243 25.0217562,33.7236024 C25.0156718,33.733743 25.0094953,33.7441602 25.0030422,33.7538398 C24.9976031,33.7617679 24.9918875,33.7690507 24.9860797,33.7762413 C24.9811016,33.7830632 24.9764001,33.789885 24.9709611,33.7959694 C24.9641392,33.8042662 24.9569486,33.8118255 24.949758,33.8193849 C24.9446877,33.8248239 24.9399862,33.830263 24.9346393,33.8356098 C24.9274487,33.8424317 24.9197972,33.8493457 24.9122378,33.8557988 C24.9065222,33.8612378 24.9004379,33.8665847 24.8942614,33.8712862 C24.8874395,33.8770018 24.8802489,33.8820721 24.8734271,33.8871424 C24.8658677,33.892858 24.8583084,33.8982971 24.8503803,33.9036439 C24.8445725,33.9073314 24.8381194,33.9109267 24.8319428,33.914522 C24.8226319,33.9202376 24.8132289,33.9260454 24.8035492,33.9310235 C24.7984789,33.9339735 24.7930399,33.9360938 24.787693,33.9385829 C24.7769071,33.9440219 24.7661212,33.9494609 24.7545056,33.9537015 C24.7498963,33.955914 24.744826,33.9572968 24.7397557,33.9591406 C24.7282323,33.9634734 24.7163402,33.9678062 24.7045402,33.9714015 C24.6983637,33.973153 24.6922793,33.974628 24.6861028,33.976103 C24.6753169,33.9789608 24.664531,33.9818186 24.6533764,33.9840311 C24.6436045,33.9861514 24.6335561,33.9872577 24.6238765,33.9886405 C24.6159484,33.9897467 24.6086656,33.9912217 24.6008297,33.991867 C24.5464393,33.9973061 24.4905739,33.994817 24.4351694,33.9836624 C24.398018,33.9757343 24.3627103,33.9645796 24.3285089,33.9497375 L20.6230468,32.3617218 C20.37239,32.254416 20.098041,32.2788456 19.870431,32.4290184 C19.6431897,32.5788225 19.5124683,32.8215513 19.5124683,33.0937799 L19.5124683,33.1207907 C19.5124683,33.348032 19.6100945,33.5648562 19.7797188,33.7160431 L24.9140816,38.281519 C25.0321733,38.3862436 25.0999309,38.5367852 25.0999309,38.6948862 L25.0999309,41.0809659 C25.0999309,41.3866584 24.8521318,41.6340887 24.546808,41.6340887 C24.2410233,41.6340887 23.9936852,41.3866584 23.9936852,41.0809659 L23.9936852,38.9430539 L19.0447108,34.5425008 C18.638903,34.1816803 18.4062226,33.6634964 18.4062226,33.120422 L18.4062226,33.0937799 C18.4062226,32.452434 18.7260198,31.8582879 19.2615349,31.5053955 C19.7973266,31.1521344 20.4689099,31.0919362 21.0588154,31.3448055 L23.9936852,32.6026068 L23.9936852,24.6463957 C23.9936852,23.4699956 24.9504955,22.5128166 26.1268956,22.5128166 L26.1589767,22.5128166 C27.335469,22.5128166 28.2925559,23.4699956 28.2925559,24.6463957 L28.2925559,29.6008092 L31.1312745,30.0458887 Z M19.2536068,27.6068935 C19.1368979,27.6068935 19.0209265,27.5697421 18.923669,27.497744 L15.2232773,24.7472484 C15.0827841,24.6428004 15,24.4782464 15,24.3032752 C15,24.1285806 15.0827841,23.9636578 15.2232773,23.8592097 L18.923669,21.109083 C19.0915418,20.9845381 19.3151878,20.9650867 19.5020512,21.0590254 C19.6889145,21.1526875 19.8067297,21.3438836 19.8067297,21.5531484 L19.8067297,23.7501523 L22.2132749,23.7501523 C22.5189675,23.7501523 22.7663978,23.9978592 22.7663978,24.3032752 C22.7663978,24.6089677 22.5189675,24.856398 22.2132749,24.856398 L19.8067297,24.856398 L19.8067297,27.0537707 C19.8067297,27.2629433 19.6889145,27.4542316 19.5020512,27.5478016 C19.4235077,27.587442 19.3385112,27.6068935 19.2536068,27.6068935 Z M36.7767227,23.8592097 C36.9171238,23.9636578 37,24.1282118 37,24.3032752 C37,24.4782464 36.9171238,24.6428004 36.7767227,24.7472484 L33.0762388,27.497744 C32.9789813,27.5697421 32.8627333,27.6068935 32.7460244,27.6068935 C32.6613966,27.6068935 32.5764001,27.587442 32.4975801,27.5478016 C32.3109933,27.4542316 32.1929016,27.2629433 32.1929016,27.0537707 L32.1929016,24.856398 L29.7863563,24.856398 C29.4809403,24.856398 29.2332335,24.6089677 29.2332335,24.3032752 C29.2332335,23.9978592 29.4809403,23.7501523 29.7863563,23.7501523 L32.1929016,23.7501523 L32.1929016,21.5531484 C32.1929016,21.3438836 32.3109933,21.1526875 32.4975801,21.0587488 C32.6844434,20.9650867 32.9084582,20.9845381 33.07587,21.109083 L36.7767227,23.8592097 Z" id="Combined-Shape"></path>
        </g>
    </g>
</svg>