<?xml version="1.0" encoding="UTF-8"?>
<svg width="19px" height="12px" viewBox="0 0 19 12" version="1.1" xmlns="http://www.w3.org/2000/svg" xmlns:xlink="http://www.w3.org/1999/xlink">
    <!-- Generator: Sketch 47.1 (45422) - http://www.bohemiancoding.com/sketch -->
    <title>Combined Shape</title>
    <desc>Created with Sketch.</desc>
    <defs>
        <linearGradient x1="50%" y1="3.37611607%" x2="50%" y2="100%" id="linearGradient-1">
            <stop stop-color="#F1BF00" offset="0%"></stop>
            <stop stop-color="#DF8B00" offset="100%"></stop>
        </linearGradient>
    </defs>
    <g id="Symbols" stroke="none" stroke-width="1" fill="none" fill-rule="evenodd">
        <g id="ic_delivery" fill="url(#linearGradient-1)">
            <path d="M15.5000721,9 C16.3269734,9 17,9.67310234 17,10.5 C17,11.32715 16.3269734,12 15.5000721,12 C14.6728824,12 14,11.32715 14,10.5 C14,9.67310234 14.6728824,9 15.5000721,9 Z M15.3372335,2 C15.4556574,2 15.5681581,2.04898184 15.6440981,2.13345557 L18.9068214,5.76126578 C18.9671567,5.82803156 19,5.91250528 19,5.999943 L19,9.62786721 C19,9.83337054 18.8208323,10 18.6001202,10 L18.1763024,10 C17.9781395,10 17.8029342,9.86745643 17.7772396,9.68475302 C17.6203759,8.56580866 16.6608932,7.87189292 15.5003472,7.87189292 C14.3396378,7.87189292 13.3802777,8.56580866 13.2232506,9.68475302 C13.1977194,9.86730443 13.0223507,10 12.8243512,10 L12.4000432,10 C12.1790452,10 12,9.83337054 12,9.62786721 L12,2.37213279 C12,2.16670546 12.1790452,2 12.4000432,2 L15.3372335,2 Z M0.393482803,10 C0.176108968,10 0,9.83406649 0,9.6297417 L0,0.370409595 C0,0.165933513 0.176108968,0 0.393482803,0 L11.6065172,0 C11.8237705,0 12,0.165933513 12,0.370409595 L12,9.6297417 C12,9.83406649 11.8237705,10 11.6065172,10 L6.66501929,10 C6.4700659,10 6.29773385,9.86807019 6.27262134,9.68617498 C6.11820958,8.57244982 5.17458213,7.88170949 4.03290743,7.88170949 C2.89139344,7.88170949 1.94780617,8.57244982 1.79335423,9.68617498 C1.768081,9.86807019 1.59558824,10 1.40079556,10 L0.393482803,10 Z M3.49992791,9 C4.32686531,9 5,9.67310234 5,10.5 C5,11.32715 4.32686531,12 3.49992791,12 C2.67288237,12 2,11.32715 2,10.5 C2,9.67310234 2.67288237,9 3.49992791,9 Z" id="Combined-Shape"></path>
        </g>
    </g>
</svg>