<?xml version="1.0" encoding="UTF-8"?>
<svg width="19px" height="20px" viewBox="0 0 19 20" version="1.1" xmlns="http://www.w3.org/2000/svg" xmlns:xlink="http://www.w3.org/1999/xlink">
    <!-- Generator: Sketch 47.1 (45422) - http://www.bohemiancoding.com/sketch -->
    <title>Combined Shape</title>
    <desc>Created with Sketch.</desc>
    <defs></defs>
    <g id="Symbols" stroke="none" stroke-width="1" fill="none" fill-rule="evenodd">
        <g id="ic_menu-3_black" transform="translate(-2.000000, -2.000000)" fill="#000000">
            <path d="M19,6.06706724 L19,4.91442407 C18.4173998,4.70823894 18,4.15245384 18,3.5 C18,2.67219388 18.6719082,2 19.5006375,2 C20.3280918,2 21,2.67219388 21,3.5 C21,4.1526871 20.5823017,4.70863633 20,4.91464508 L20,21.4614326 C20,21.7587218 19.776,22 19.5,22 C19.224,22 19,21.7587218 19,21.4614326 L19,19.1508304 L7.63632229,20.9924718 C7.60784659,20.9978491 7.57718046,21 7.54760954,21 C7.41946891,21 7.29351871,20.9548307 7.19385378,20.8720203 C7.07009402,20.7698516 7,20.6203626 7,20.46227 L7,8.4687401 C7,8.2052524 7.19385378,7.98048126 7.4588968,7.93746286 L19,6.06706724 Z M19,7.15628367 L16,7.64280004 L16,18.5040093 C16,18.5186218 15.9993619,18.5330875 15.9981119,18.5473803 L19,18.060628 L19,7.15628367 Z M15.041678,18.7024648 C15.0148737,18.6416843 15,18.5745593 15,18.5040093 L15,7.80497216 L11.9571443,8.29843853 C11.9846903,8.3606561 12,8.42952707 12,8.50196603 L12,19.1956689 L15.041678,18.7024648 Z M11,19.3578176 L11,8.50196603 C11,8.48554319 11.0007869,8.46930373 11.0023249,8.45328362 L8.09521908,8.92473514 L8.09521908,19.8288241 L11,19.3578176 Z M3,4.91442407 L3,21.4614326 C3,21.7587218 3.224,22 3.5,22 C3.776,22 4,21.7587218 4,21.4614326 L4,4.91464508 C4.58230167,4.70863633 5,4.1526871 5,3.5 C5,2.67219388 4.3280918,2 3.50063748,2 C2.6719082,2 2,2.67219388 2,3.5 C2,4.15245384 2.41739982,4.70823894 3,4.91442407 Z" id="Combined-Shape"></path>
        </g>
    </g>
</svg>