<?xml version="1.0" encoding="UTF-8"?>
<svg width="90px" height="90px" viewBox="0 0 90 90" version="1.1" xmlns="http://www.w3.org/2000/svg" xmlns:xlink="http://www.w3.org/1999/xlink">
    <!-- Generator: Sketch 47.1 (45422) - http://www.bohemiancoding.com/sketch -->
    <title>ic_advant-8</title>
    <desc>Created with Sketch.</desc>
    <defs>
        <linearGradient x1="50%" y1="0%" x2="50%" y2="100%" id="linearGradient-1">
            <stop stop-color="#489DE0" offset="0%"></stop>
            <stop stop-color="#2F88CF" offset="100%"></stop>
        </linearGradient>
        <linearGradient x1="50%" y1="3.37611607%" x2="50%" y2="100%" id="linearGradient-2">
            <stop stop-color="#F1BF00" offset="0%"></stop>
            <stop stop-color="#DF8B00" offset="100%"></stop>
        </linearGradient>
    </defs>
    <g id="Symbols" stroke="none" stroke-width="1" fill="none" fill-rule="evenodd">
        <g id="ic_advant-8">
            <rect id="Rectangle-5" fill="#CBE8FF" x="6" y="74" width="53" height="3" rx="1.5"></rect>
            <rect id="Rectangle-5" fill="#CBE8FF" x="51" y="69" width="33" height="3" rx="1.5"></rect>
            <path d="M19.1274553,32 C19.0434644,32.6089597 19,33.2315512 19,33.864715 C19,41.0444167 24.5887426,46.864715 31.4828059,46.864715 L31.4828059,46.864715 C38.3768693,46.864715 43.9656119,41.0444167 43.9656119,33.864715 C43.9656119,33.2624093 43.9262808,32.6696705 43.8501476,32.0891321" id="Oval-7" fill="#FFFFFF"></path>
            <path d="M52.1082511,34 C52.0369154,34.5460261 52,35.1042752 52,35.6720039 C52,42.1097111 56.7466621,47.328504 62.6019666,47.328504 L62.6019666,47.328504 C68.4572711,47.328504 73.2039332,42.1097111 73.2039332,35.6720039 C73.2039332,35.1319442 73.1705283,34.6004626 73.1058665,34.0799206" id="Oval-7" fill="#FFFFFF"></path>
            <path d="M80,70 C80,60.0588745 72.1649831,52 62.5,52 C52.8350169,52 45,60.0588745 45,70" id="Oval-6" fill="#FFFFFF"></path>
            <path d="M81.5,70 L78.5,70 C78.5,60.8779923 71.326952,53.5 62.5,53.5 C53.673048,53.5 46.5,60.8779923 46.5,70 L43.5,70 C43.5,59.2397567 51.9969857,50.5 62.5,50.5 C73.0030143,50.5 81.5,59.2397567 81.5,70 Z M50.6208906,33.8056835 L53.5956115,34.1943165 C53.5321134,34.6803512 53.5,35.1737232 53.5,35.6720039 C53.5,41.311353 57.608496,45.828504 62.6019666,45.828504 C67.5954372,45.828504 71.7039332,41.311353 71.7039332,35.6720039 C71.7039332,35.197818 71.6748504,34.7280645 71.6173072,34.2648299 L74.5944257,33.8950114 C74.6672039,34.4808916 74.7039332,35.074153 74.7039332,35.6720039 C74.7039332,42.9080693 69.3191049,48.828504 62.6019666,48.828504 C55.8848283,48.828504 50.5,42.9080693 50.5,35.6720039 C50.5,35.0437247 50.5405632,34.4205354 50.6208906,33.8056835 Z" id="Combined-Shape" fill="url(#linearGradient-1)" fill-rule="nonzero"></path>
            <path d="M66,18.5658815 C70.0492982,19.9143598 73.1239408,23.5400857 73.8409963,28 L76,28 L76,32 L49,32 L49,28 L51.1590037,28 C51.8760592,23.5400857 54.9507018,19.9143598 59,18.5658815 L59,17 L66,17 L66,18.5658815 Z" id="Combined-Shape" fill="url(#linearGradient-2)"></path>
            <path d="M55,75 C55,62.2974508 44.7025492,52 32,52 C19.2974508,52 9,62.2974508 9,75" id="Oval-6" fill="#FFFFFF"></path>
            <path d="M57,75.5 L54,75.5 C54,63.6258779 44.3741221,54 32.5,54 C20.6258779,54 11,63.6258779 11,75.5 L8,75.5 C8,61.9690236 18.9690236,51 32.5,51 C46.0309764,51 57,61.9690236 57,75.5 Z M18.142088,32 L20.9934702,32.4265419 C20.9185349,32.9698451 20.8806475,33.5212013 20.8806475,34.0779859 C20.8806475,40.4292606 25.8245352,45.5779859 31.9231297,45.5779859 C38.0217242,45.5779859 42.9656119,40.4292606 42.9656119,34.0779859 C42.9656119,33.5481296 42.9313006,33.0231772 42.8633958,32.5053827 L45.717547,32.0994234 C45.8030832,32.7516622 45.8462594,33.4122451 45.8462594,34.0779859 C45.8462594,42.0861148 39.6126619,48.5779859 31.9231297,48.5779859 C24.2335975,48.5779859 18,42.0861148 18,34.0779859 C18,33.3783662 18.0476824,32.6844688 18.142088,32 Z" id="Combined-Shape" fill="url(#linearGradient-1)" fill-rule="nonzero"></path>
            <path d="M35,15.3780525 C39.8639725,16.6299524 43.5344538,20.8547742 43.9589262,26 L46,26 L46,30 L18,30 L18,26 L20.0410738,26 C20.4655462,20.8547742 24.1360275,16.6299524 29,15.3780525 L29,14 L35,14 L35,15.3780525 Z" id="Combined-Shape" fill="url(#linearGradient-2)"></path>
        </g>
    </g>
</svg>