<?xml version="1.0" encoding="UTF-8"?>
<svg width="90px" height="90px" viewBox="0 0 90 90" version="1.1" xmlns="http://www.w3.org/2000/svg" xmlns:xlink="http://www.w3.org/1999/xlink">
    <!-- Generator: Sketch 47.1 (45422) - http://www.bohemiancoding.com/sketch -->
    <title>ic_advant-6</title>
    <desc>Created with Sketch.</desc>
    <defs>
        <linearGradient x1="50%" y1="0%" x2="50%" y2="100%" id="linearGradient-1">
            <stop stop-color="#489DE0" offset="0%"></stop>
            <stop stop-color="#2F88CF" offset="100%"></stop>
        </linearGradient>
        <polygon id="path-2" points="0.41673913 11 8.82313043 11 8.82313043 0.279888889 0.41673913 0.279888889 0.41673913 11"></polygon>
        <linearGradient x1="50%" y1="3.37611607%" x2="50%" y2="100%" id="linearGradient-4">
            <stop stop-color="#F1BF00" offset="0%"></stop>
            <stop stop-color="#DF8B00" offset="100%"></stop>
        </linearGradient>
    </defs>
    <g id="Symbols" stroke="none" stroke-width="1" fill="none" fill-rule="evenodd">
        <g id="ic_advant-6">
            <rect id="Rectangle-5" fill="#CBE8FF" x="22" y="75" width="45" height="3" rx="1.5"></rect>
            <path d="M14,37.3022087 C15.5867707,49.8662083 19.133797,61.8165644 25.8381731,72.7766492 C38.0584665,75.6500594 50.4978854,75.8307974 63.1985277,72.7766492 C70.1673656,61.3198053 73.628037,49.4603594 75,37.3628154 C66.4627418,27.5391076 56.235087,20.1732206 44.5005397,15 C32.6785582,20.4730077 22.3041001,27.6614034 14,37.3022087 Z" id="Fill-1" fill="#FFFFFF"></path>
            <path d="M12.5118216,37.4901582 L12.4282629,36.828543 L12.8634806,36.3232686 C20.9776316,26.9029883 31.2895955,19.4630846 43.8703669,13.6387938 L44.4854374,13.3540458 L45.1056294,13.6274598 C57.2127489,18.9649304 67.5669503,26.5229656 76.1321991,36.3788819 L76.5647542,36.8766173 L76.490446,37.5318445 C74.9952065,50.7164022 71.1746954,62.5501323 64.4800686,73.5561702 L64.1558417,74.0892026 L63.5492379,74.2350738 C50.895149,77.2780272 38.2332856,77.2320736 25.4948352,74.2368269 L24.8853216,74.0935094 L24.5585905,73.5593806 C18.0875439,62.9807349 14.2290148,51.0868392 12.5118216,37.4901582 Z M26.7928969,71.4578998 C38.6694045,74.1599455 50.4530769,74.2007453 62.2397481,71.461982 C68.3892473,61.1785505 71.9597232,50.1404067 73.4329875,37.8502588 C65.3936208,28.7410818 55.7522163,21.7009909 44.5150731,16.6484155 C32.8100364,22.1511523 23.1930321,29.0889619 15.5739174,37.7778633 C17.2503634,50.4662353 20.855826,61.5699886 26.7928969,71.4578998 Z" id="Fill-1" fill="url(#linearGradient-1)" fill-rule="nonzero"></path>
            <g id="Page-1" transform="translate(43.000000, 31.000000)">
                <g id="Group-9">
                    <g id="Group-6" transform="translate(0.391304, 0.000000)">
                        <mask id="mask-3" fill="white">
                            <use xlink:href="#path-2"></use>
                        </mask>
                        <g id="Clip-5"></g>
                    </g>
                </g>
            </g>
            <polygon id="Fill-1" fill="url(#linearGradient-1)" points="27 31 27 41 29.4976583 41 29.4976583 32.8614465 34 32.8614465 34 31"></polygon>
            <path d="M40.3900783,36.4211667 C40.3900783,35.3847222 40.2233826,34.5988333 39.8911652,34.0610556 C39.5589478,33.5245 39.083513,33.2556111 38.463687,33.2556111 C37.2533826,33.2556111 36.6136,34.2016111 36.545513,36.0911667 L36.5384696,36.8575 C36.5384696,37.8792778 36.7004696,38.6651667 37.0268174,39.2139444 C37.3519913,39.7627222 37.8356435,40.0377222 38.4777739,40.0377222 C39.0882087,40.0377222 39.5577739,39.7676111 39.8876435,39.2286111 C40.218687,38.6883889 40.3853826,37.9135 40.3900783,36.9015 L40.3900783,36.4211667 Z M42.8459043,36.8575 C42.8459043,37.8743889 42.6639478,38.7751667 42.3023826,39.5573889 C41.9396435,40.3408333 41.4254696,40.9433889 40.757513,41.3662778 C40.0907304,41.7891667 39.3312087,41.9993889 38.4777739,41.9993889 C37.625513,41.9993889 36.8683391,41.7952778 36.2074261,41.3870556 C35.547687,40.9788333 35.033513,40.3958333 34.6637304,39.6368333 C34.2951217,38.8778333 34.1014261,38.0063889 34.0826435,37.0225 L34.0826435,36.4358333 C34.0826435,35.4140556 34.2622522,34.5120556 34.6226435,33.7322778 C34.9830348,32.9512778 35.4983826,32.3487222 36.1698609,31.9233889 C36.842513,31.4992778 37.6067304,31.2866111 38.463687,31.2866111 C39.3124261,31.2866111 40.0696,31.4968333 40.7340348,31.9160556 C41.3984696,32.3365 41.9161652,32.9341667 42.2847739,33.7102778 C42.6545565,34.4863889 42.8412087,35.3761667 42.8459043,36.3783889 L42.8459043,36.8575 Z" id="Fill-2" fill="url(#linearGradient-1)"></path>
            <path d="M53.1933043,38.3261222 C53.1616087,39.0521222 52.9737826,39.6925667 52.6298261,40.2486778 C52.2858696,40.8047889 51.8022174,41.2362333 51.1812174,41.5417889 C50.5602174,41.8473444 49.85,42.0001222 49.052913,42.0001222 C47.7369565,42.0001222 46.7003913,41.5540111 45.9432174,40.6605667 C45.1872174,39.7683444 44.8080435,38.5070111 44.8080435,36.8790111 L44.8080435,36.3644556 C44.8080435,35.3426778 44.9794348,34.4480111 45.3210435,33.6816778 C45.6626522,32.9153444 46.1545217,32.3237889 46.7966522,31.9057889 C47.4387826,31.4877889 48.1806957,31.2787889 49.0247391,31.2787889 C50.2397391,31.2787889 51.2164348,31.6124556 51.9548261,32.2785667 C52.6932174,32.9446778 53.1134783,33.8625667 53.2144348,35.0322333 L50.8067391,35.0322333 C50.7879565,34.3966778 50.6341739,33.9407889 50.3453913,33.6645667 C50.0566087,33.3871222 49.6163913,33.2490111 49.0247391,33.2490111 C48.4248696,33.2490111 47.9846522,33.4824556 47.704087,33.9505667 C47.4246957,34.4186778 47.2779565,35.1654556 47.2638696,36.1921222 L47.2638696,36.9291222 C47.2638696,38.0425667 47.3976957,38.8370111 47.6665217,39.3149 C47.9353478,39.7915667 48.3966957,40.0311222 49.052913,40.0311222 C49.607,40.0311222 50.0319565,39.8942333 50.3254348,39.6229 C50.618913,39.3503444 50.7738696,38.9176778 50.7926522,38.3261222 L53.1933043,38.3261222 Z" id="Fill-4" fill="url(#linearGradient-1)"></path>
            <polygon id="Fill-7" fill="url(#linearGradient-1)" points="62.9976522 33.3705 59.9912609 33.3705 59.9912609 41.8563889 57.5776957 41.8563889 57.5776957 33.3705 54.6264783 33.3705 54.6264783 31.4296111 62.9976522 31.4296111"></polygon>
            <path d="M45.9755457,51.476754 L44.0061949,51.4830988 L44.9897679,51.1377739 L45.9755457,51.476754 Z M56.638998,47.0478195 L65.6950993,47.0478195 L45,54.3137085 L23.8702911,47.0478195 L33.095897,47.0478195 L44.9897679,51.1377739 L56.638998,47.0478195 Z M45.9755457,51.476754 L44.0061949,51.4830988 L44.9897679,51.1377739 L45.9755457,51.476754 Z M56.638998,47.0478195 L65.6950993,47.0478195 L45,54.3137085 L23.8702911,47.0478195 L33.095897,47.0478195 L44.9897679,51.1377739 L56.638998,47.0478195 Z M46.8679443,54.5938235 L56.0502702,67.4184006 L52.3605775,67.4184006 L45.0602911,57.2223906 L46.8679443,54.5938235 Z M43.2031279,54.6285671 L45.0602911,57.2223906 L38.0485429,67.4184006 L34.4076195,67.4184006 L43.2031279,54.6285671 Z" id="Combined-Shape" fill="url(#linearGradient-4)" fill-rule="nonzero"></path>
        </g>
    </g>
</svg>