<?xml version="1.0" encoding="UTF-8"?>
<svg width="90px" height="90px" viewBox="0 0 90 90" version="1.1" xmlns="http://www.w3.org/2000/svg" xmlns:xlink="http://www.w3.org/1999/xlink">
    <!-- Generator: Sketch 47.1 (45422) - http://www.bohemiancoding.com/sketch -->
    <title>ic_advant-2</title>
    <desc>Created with Sketch.</desc>
    <defs>
        <linearGradient x1="50%" y1="0%" x2="50%" y2="100%" id="linearGradient-1">
            <stop stop-color="#489DE0" offset="0%"></stop>
            <stop stop-color="#2F88CF" offset="100%"></stop>
        </linearGradient>
        <linearGradient x1="50%" y1="3.37611607%" x2="50%" y2="100%" id="linearGradient-2">
            <stop stop-color="#F1BF00" offset="0%"></stop>
            <stop stop-color="#DF8B00" offset="100%"></stop>
        </linearGradient>
    </defs>
    <g id="Symbols" stroke="none" stroke-width="1" fill="none" fill-rule="evenodd">
        <g id="ic_advant-2">
            <rect id="Rectangle-5" fill="#CBE8FF" x="14" y="74" width="61" height="3" rx="1.5"></rect>
            <path d="M55,55 L61,55 L61,36 L55,36 L55,55 Z M64,55 L70,55 L70,36 L64,36 L64,55 Z M73,65 L73,75 L44.5,75 L17.5,75 L16,75 L16,22.6631844 C14.8175263,22.1014525 14,20.896198 14,19.5 C14,17.5670034 15.5670034,16 17.5,16 C19.4329966,16 21,17.5670034 21,19.5 C21,20.896198 20.1824737,22.1014525 19,22.6631844 L19,33 L25,33 L25,25 L28,25 L28,33 L34,33 L34,25 L37,25 L37,33 L43,33 L43,25 L46,25 L46,33 L52,33 L52,25 L55,25 L55,33 L61,33 L61,25 L64,25 L64,33 L70,33 L70,22.6631844 C68.8175263,22.1014525 68,20.896198 68,19.5 C68,17.5670034 69.5670034,16 71.5,16 C73.4329966,16 75,17.5670034 75,19.5 C75,20.896198 74.1824737,22.1014525 73,22.6631844 L73,65 Z M46,45 L52,45 L52,36 L46,36 L46,45 Z M19,45 L25,45 L25,36 L19,36 L19,45 Z M43,45 L43,36 L37,36 L37,45 L43,45 Z M34,45 L34,36 L28,36 L28,45 L34,45 Z" id="Combined-Shape" fill="url(#linearGradient-1)"></path>
            <rect id="Rectangle" fill="#FFFFFF" x="37" y="58" width="33" height="14"></rect>
            <path d="M34,55 L52,55 L52,48 L19,48 L19,54 L19,72 L34,72 L34,55 Z" id="Combined-Shape" fill="#FFFFFF"></path>
            <rect id="Rectangle-10" fill="url(#linearGradient-2)" x="40" y="61" width="14" height="8"></rect>
            <rect id="Rectangle-10" fill="url(#linearGradient-2)" x="57" y="61" width="10" height="2"></rect>
            <rect id="Rectangle-10" fill="url(#linearGradient-2)" x="57" y="65" width="8" height="2"></rect>
        </g>
    </g>
</svg>