<?xml version="1.0" encoding="UTF-8"?>
<svg width="90px" height="90px" viewBox="0 0 90 90" version="1.1" xmlns="http://www.w3.org/2000/svg" xmlns:xlink="http://www.w3.org/1999/xlink">
    <!-- Generator: Sketch 47.1 (45422) - http://www.bohemiancoding.com/sketch -->
    <title>ic_advant-7</title>
    <desc>Created with Sketch.</desc>
    <defs>
        <linearGradient x1="50%" y1="0%" x2="50%" y2="100%" id="linearGradient-1">
            <stop stop-color="#489DE0" offset="0%"></stop>
            <stop stop-color="#2F88CF" offset="100%"></stop>
        </linearGradient>
        <linearGradient x1="50%" y1="3.37611607%" x2="50%" y2="100%" id="linearGradient-2">
            <stop stop-color="#F1BF00" offset="0%"></stop>
            <stop stop-color="#DF8B00" offset="100%"></stop>
        </linearGradient>
    </defs>
    <g id="Symbols" stroke="none" stroke-width="1" fill="none" fill-rule="evenodd">
        <g id="ic_advant-7">
            <rect id="Rectangle-5" fill="#CBE8FF" x="11" y="69" width="68" height="3" rx="1.5"></rect>
            <rect id="Rectangle-3" fill="#FFFFFF" x="16" y="21" width="58" height="46"></rect>
            <path d="M16,21 L16,67 L74,67 L74,21 L16,21 Z M13,19.5 L13,18 L75.5,18 L77,18 L77,70 L75.5,70 L13,70 L13,68.5 L13,19.5 Z M66,26 L66,29 L21,29 L21,26 L66,26 Z M60,33 L60,36 L21,36 L21,33 L60,33 Z M63.5,40 L63.5,43 L21,43 L21,40 L63.5,40 Z M45,47 L45,50 L21,50 L21,47 L45,47 Z M38.5,54 L38.5,57 L21,57 L21,54 L38.5,54 Z" id="Combined-Shape" fill="url(#linearGradient-1)"></path>
            <polygon id="Rectangle-2" fill="url(#linearGradient-2)" points="56 60 64 60 64 74 60.0316541 71.0406737 56 74"></polygon>
            <circle id="Oval" fill="url(#linearGradient-2)" cx="60" cy="55" r="8"></circle>
        </g>
    </g>
</svg>