<?xml version="1.0" encoding="UTF-8"?>
<svg width="44px" height="51px" viewBox="0 0 44 51" version="1.1" xmlns="http://www.w3.org/2000/svg" xmlns:xlink="http://www.w3.org/1999/xlink">
    <!-- Generator: Sketch 47.1 (45422) - http://www.bohemiancoding.com/sketch -->
    <title>Combined Shape</title>
    <desc>Created with Sketch.</desc>
    <defs></defs>
    <g id="Symbols" stroke="none" stroke-width="1" fill="none" fill-rule="evenodd" fill-opacity="0.121150362">
        <g id="zaborus-firm-line" fill="#FFFFFF">
            <g id="Combined-Shape">
                <path d="M0,8.83159221 L0,0.336815582 C0.454627692,0.120845523 0.963201354,3.55271368e-15 1.5,3.55271368e-15 C3.43299662,3.55271368e-15 5,1.56700338 5,3.5 C5,4.89619798 4.18247367,6.10145245 3,6.66318442 L3,19 L11,19 L11,11 L14,11 L14,19 L22,19 L22,11 L25,11 L25,19 L33,19 L33,11 L36,11 L36,19 L44,19 L44,6.66318442 C42.8175263,6.10145245 42,4.89619798 42,3.5 C42,2.10380202 42.8175263,0.89854755 44,0.336815582 L44,51 L1.5,51 L0,51 L0,8.83159221 Z M3,48 L11,48 L11,41 L3,41 L3,48 Z M3,22 L3,38 L11,38 L11,22 L3,22 Z M44,38 L44,22 L36,22 L36,38 L44,38 Z M44,41 L36,41 L36,48 L44,48 L44,41 Z M33,38 L33,22 L25,22 L25,38 L33,38 Z M33,41 L25,41 L25,48 L33,48 L33,41 Z M22,38 L22,22 L14,22 L14,38 L22,38 Z M22,41 L14,41 L14,48 L22,48 L22,41 Z"></path>
            </g>
        </g>
    </g>
</svg>