<?xml version="1.0" encoding="UTF-8"?>
<svg width="108px" height="24px" viewBox="0 0 108 24" version="1.1" xmlns="http://www.w3.org/2000/svg" xmlns:xlink="http://www.w3.org/1999/xlink">
    <!-- Generator: Sketch 47.1 (45422) - http://www.bohemiancoding.com/sketch -->
    <title>bt gate-2-1 disabled</title>
    <desc>Created with Sketch.</desc>
    <defs>
        <rect id="path-1" x="0" y="12" width="20" height="12" rx="3"></rect>
        <rect id="path-2" x="88" y="12" width="20" height="12" rx="3"></rect>
        <path d="M60.0040008,4.21040644 L87.7288777,4.59287203 L87.7288777,4.59287203 C89.2803221,4.61427426 90.5267831,5.8780489 90.5267831,7.42964089 L90.5267831,7.42964089 L90.5267831,7.42964089 C90.5267831,8.95385679 89.291162,10.1894779 87.7669461,10.1894779 C87.7542562,10.1894779 87.7415664,10.1893904 87.7288777,10.1892153 L60.0040008,9.80674975 L60.0040008,9.80674975 C58.4525564,9.78534753 57.2060953,8.52157288 57.2060953,6.9699809 L57.2060953,6.9699809 L57.2060953,6.9699809 C57.2060953,5.44576499 58.4417164,4.21014387 59.9659323,4.21014387 C59.9786223,4.21014387 59.991312,4.21023139 60.0040008,4.21040644 Z" id="path-3"></path>
        <path d="M21.0040008,4.21040644 L48.7288777,4.59287203 L48.7288777,4.59287203 C50.2803221,4.61427426 51.5267831,5.8780489 51.5267831,7.42964089 L51.5267831,7.42964089 L51.5267831,7.42964089 C51.5267831,8.95385679 50.291162,10.1894779 48.7669461,10.1894779 C48.7542562,10.1894779 48.7415664,10.1893904 48.7288777,10.1892153 L21.0040008,9.80674975 L21.0040008,9.80674975 C19.4525564,9.78534753 18.2060953,8.52157288 18.2060953,6.9699809 L18.2060953,6.9699809 L18.2060953,6.9699809 C18.2060953,5.44576499 19.4417164,4.21014387 20.9659323,4.21014387 C20.9786223,4.21014387 20.991312,4.21023139 21.0040008,4.21040644 Z" id="path-4"></path>
        <circle id="path-5" cx="90" cy="12" r="6"></circle>
        <circle id="path-6" cx="20" cy="12" r="6"></circle>
    </defs>
    <g id="Symbols" stroke="none" stroke-width="1" fill="none" fill-rule="evenodd">
        <g id="bt-gate-2-1-disabled">
            <g id="Rectangle-6">
                <use fill="#F2F2F2" fill-rule="evenodd" xlink:href="#path-1"></use>
                <rect stroke="#E4E4E4" stroke-width="1" x="0.5" y="12.5" width="19" height="11" rx="3"></rect>
            </g>
            <g id="Rectangle-6">
                <use fill="#F2F2F2" fill-rule="evenodd" xlink:href="#path-2"></use>
                <rect stroke="#E4E4E4" stroke-width="1" x="88.5" y="12.5" width="19" height="11" rx="3"></rect>
            </g>
            <g id="Rectangle-5" transform="translate(73.866439, 7.199811) rotate(-345.000000) translate(-73.866439, -7.199811) ">
                <use fill="#F2F2F2" fill-rule="evenodd" xlink:href="#path-3"></use>
                <path stroke="#E4E4E4" stroke-width="1" d="M59.9971039,4.71035887 C59.9815186,4.7101797 59.9815186,4.7101797 59.9659323,4.71014387 C58.7178588,4.71014387 57.7060953,5.72190737 57.7060953,6.9699809 C57.7060953,8.24812015 58.73288,9.28916703 60.0108976,9.30679732 L87.7357746,9.68926292 C87.7513598,9.68944208 87.7513598,9.68944208 87.7669461,9.68947791 C89.0150196,9.68947791 90.0267831,8.67771441 90.0267831,7.42964089 C90.0267831,6.15150163 88.9999985,5.11045476 87.7219808,5.09282446 L59.9971039,4.71035887 Z"></path>
            </g>
            <g id="Rectangle-5" transform="translate(34.866439, 7.199811) scale(-1, 1) rotate(-345.000000) translate(-34.866439, -7.199811) ">
                <use fill="#F2F2F2" fill-rule="evenodd" xlink:href="#path-4"></use>
                <path stroke="#E4E4E4" stroke-width="1" d="M20.9971039,4.71035887 C20.9815186,4.7101797 20.9815186,4.7101797 20.9659323,4.71014387 C19.7178588,4.71014387 18.7060953,5.72190737 18.7060953,6.9699809 C18.7060953,8.24812015 19.73288,9.28916703 21.0108976,9.30679732 L48.7357746,9.68926292 C48.7513598,9.68944208 48.7513598,9.68944208 48.7669461,9.68947791 C50.0150196,9.68947791 51.0267831,8.67771441 51.0267831,7.42964089 C51.0267831,6.15150163 49.9999985,5.11045476 48.7219808,5.09282446 L20.9971039,4.71035887 Z"></path>
            </g>
            <g id="Oval-3">
                <use fill="#F2F2F2" fill-rule="evenodd" xlink:href="#path-5"></use>
                <circle stroke="#E4E4E4" stroke-width="1" cx="90" cy="12" r="5.5"></circle>
            </g>
            <g id="Oval-3">
                <use fill="#F2F2F2" fill-rule="evenodd" xlink:href="#path-6"></use>
                <circle stroke="#E4E4E4" stroke-width="1" cx="20" cy="12" r="5.5"></circle>
            </g>
        </g>
    </g>
</svg>