<?xml version="1.0" encoding="UTF-8"?>
<svg width="108px" height="24px" viewBox="0 0 108 24" version="1.1" xmlns="http://www.w3.org/2000/svg" xmlns:xlink="http://www.w3.org/1999/xlink">
    <!-- Generator: Sketch 47.1 (45422) - http://www.bohemiancoding.com/sketch -->
    <title>bt gate-2-2 disabled</title>
    <desc>Created with Sketch.</desc>
    <defs>
        <rect id="path-1" x="0" y="0" width="20" height="12" rx="3"></rect>
        <rect id="path-2" x="88" y="0" width="20" height="12" rx="3"></rect>
        <path d="M60.5004488,13.7611196 L88.2253258,14.1435852 L88.2253258,14.1435852 C89.7767702,14.1649875 91.0232312,15.4287621 91.0232312,16.9803541 L91.0232312,16.9803541 L91.0232312,16.9803541 C91.0232312,18.50457 89.7876101,19.7401911 88.2633942,19.7401911 C88.2507043,19.7401911 88.2380145,19.7401036 88.2253258,19.7399285 L60.5004488,19.357463 L60.5004488,19.357463 C58.9490045,19.3360607 57.7025434,18.0722861 57.7025434,16.5206941 L57.7025434,16.5206941 L57.7025434,16.5206941 C57.7025434,14.9964782 58.9381645,13.7608571 60.4623804,13.7608571 C60.4750703,13.7608571 60.4877601,13.7609446 60.5004488,13.7611196 Z" id="path-3"></path>
        <path d="M21.0040008,13.2104064 L48.7288777,13.592872 L48.7288777,13.592872 C50.2803221,13.6142743 51.5267831,14.8780489 51.5267831,16.4296409 L51.5267831,16.4296409 L51.5267831,16.4296409 C51.5267831,17.9538568 50.291162,19.1894779 48.7669461,19.1894779 C48.7542562,19.1894779 48.7415664,19.1893904 48.7288777,19.1892153 L21.0040008,18.8067498 L21.0040008,18.8067498 C19.4525564,18.7853475 18.2060953,17.5215729 18.2060953,15.9699809 L18.2060953,15.9699809 L18.2060953,15.9699809 C18.2060953,14.445765 19.4417164,13.2101439 20.9659323,13.2101439 C20.9786223,13.2101439 20.991312,13.2102314 21.0040008,13.2104064 Z" id="path-4"></path>
        <circle id="path-5" cx="90" cy="12" r="6"></circle>
        <circle id="path-6" cx="20" cy="12" r="6"></circle>
    </defs>
    <g id="Symbols" stroke="none" stroke-width="1" fill="none" fill-rule="evenodd">
        <g id="bt-gate-2-2-disabled">
            <g id="Rectangle-6">
                <use fill="#F2F2F2" fill-rule="evenodd" xlink:href="#path-1"></use>
                <rect stroke="#E4E4E4" stroke-width="1" x="0.5" y="0.5" width="19" height="11" rx="3"></rect>
            </g>
            <g id="Rectangle-6">
                <use fill="#F2F2F2" fill-rule="evenodd" xlink:href="#path-2"></use>
                <rect stroke="#E4E4E4" stroke-width="1" x="88.5" y="0.5" width="19" height="11" rx="3"></rect>
            </g>
            <g id="Rectangle-5" transform="translate(74.362887, 16.750524) rotate(-15.000000) translate(-74.362887, -16.750524) ">
                <use fill="#F2F2F2" fill-rule="evenodd" xlink:href="#path-3"></use>
                <path stroke="#E4E4E4" stroke-width="1" d="M60.493552,14.2610721 C60.4779667,14.2608929 60.4779667,14.2608929 60.4623804,14.2608571 C59.2143069,14.2608571 58.2025434,15.2726206 58.2025434,16.5206941 C58.2025434,17.7988334 59.229328,18.8398802 60.5073457,18.8575105 L88.2322226,19.2399761 C88.2478079,19.2401553 88.2478079,19.2401553 88.2633942,19.2401911 C89.5114677,19.2401911 90.5232312,18.2284276 90.5232312,16.9803541 C90.5232312,15.7022148 89.4964466,14.661168 88.2184289,14.6435377 L60.493552,14.2610721 Z"></path>
            </g>
            <g id="Rectangle-5" transform="translate(34.866439, 16.199811) scale(-1, 1) rotate(-15.000000) translate(-34.866439, -16.199811) ">
                <use fill="#F2F2F2" fill-rule="evenodd" xlink:href="#path-4"></use>
                <path stroke="#E4E4E4" stroke-width="1" d="M20.9971039,13.7103589 C20.9815186,13.7101797 20.9815186,13.7101797 20.9659323,13.7101439 C19.7178588,13.7101439 18.7060953,14.7219074 18.7060953,15.9699809 C18.7060953,17.2481202 19.73288,18.289167 21.0108976,18.3067973 L48.7357746,18.6892629 C48.7513598,18.6894421 48.7513598,18.6894421 48.7669461,18.6894779 C50.0150196,18.6894779 51.0267831,17.6777144 51.0267831,16.4296409 C51.0267831,15.1515016 49.9999985,14.1104548 48.7219808,14.0928245 L20.9971039,13.7103589 Z"></path>
            </g>
            <g id="Oval-3">
                <use fill="#F2F2F2" fill-rule="evenodd" xlink:href="#path-5"></use>
                <circle stroke="#E4E4E4" stroke-width="1" cx="90" cy="12" r="5.5"></circle>
            </g>
            <g id="Oval-3">
                <use fill="#F2F2F2" fill-rule="evenodd" xlink:href="#path-6"></use>
                <circle stroke="#E4E4E4" stroke-width="1" cx="20" cy="12" r="5.5"></circle>
            </g>
        </g>
    </g>
</svg>