<?xml version="1.0" encoding="UTF-8"?>
<svg width="108px" height="24px" viewBox="0 0 108 24" version="1.1" xmlns="http://www.w3.org/2000/svg" xmlns:xlink="http://www.w3.org/1999/xlink">
    <!-- Generator: Sketch 47.1 (45422) - http://www.bohemiancoding.com/sketch -->
    <title>Group</title>
    <desc>Created with Sketch.</desc>
    <defs>
        <linearGradient x1="50%" y1="0%" x2="50%" y2="100%" id="linearGradient-1">
            <stop stop-color="#489DE0" offset="0%"></stop>
            <stop stop-color="#2F88CF" offset="100%"></stop>
        </linearGradient>
        <circle id="path-2" cx="90" cy="12" r="6"></circle>
        <circle id="path-3" cx="20" cy="12" r="6"></circle>
    </defs>
    <g id="Symbols" stroke="none" stroke-width="1" fill="none" fill-rule="evenodd">
        <g id="bt-gate-2-1">
            <g id="Group">
                <rect id="Rectangle-6" fill="#CBE8FF" x="0" y="12" width="20" height="12" rx="3"></rect>
                <rect id="Rectangle-6" fill="#CBE8FF" x="88" y="12" width="20" height="12" rx="3"></rect>
                <path d="M60.0040008,4.21040644 L87.7288777,4.59287203 L87.7288777,4.59287203 C89.2803221,4.61427426 90.5267831,5.8780489 90.5267831,7.42964089 L90.5267831,7.42964089 L90.5267831,7.42964089 C90.5267831,8.95385679 89.291162,10.1894779 87.7669461,10.1894779 C87.7542562,10.1894779 87.7415664,10.1893904 87.7288777,10.1892153 L60.0040008,9.80674975 L60.0040008,9.80674975 C58.4525564,9.78534753 57.2060953,8.52157288 57.2060953,6.9699809 L57.2060953,6.9699809 L57.2060953,6.9699809 C57.2060953,5.44576499 58.4417164,4.21014387 59.9659323,4.21014387 C59.9786223,4.21014387 59.991312,4.21023139 60.0040008,4.21040644 Z" id="Rectangle-5" fill="url(#linearGradient-1)" transform="translate(73.866439, 7.199811) rotate(-345.000000) translate(-73.866439, -7.199811) "></path>
                <path d="M21.0040008,4.21040644 L48.7288777,4.59287203 L48.7288777,4.59287203 C50.2803221,4.61427426 51.5267831,5.8780489 51.5267831,7.42964089 L51.5267831,7.42964089 L51.5267831,7.42964089 C51.5267831,8.95385679 50.291162,10.1894779 48.7669461,10.1894779 C48.7542562,10.1894779 48.7415664,10.1893904 48.7288777,10.1892153 L21.0040008,9.80674975 L21.0040008,9.80674975 C19.4525564,9.78534753 18.2060953,8.52157288 18.2060953,6.9699809 L18.2060953,6.9699809 L18.2060953,6.9699809 C18.2060953,5.44576499 19.4417164,4.21014387 20.9659323,4.21014387 C20.9786223,4.21014387 20.991312,4.21023139 21.0040008,4.21040644 Z" id="Rectangle-5" fill="url(#linearGradient-1)" transform="translate(34.866439, 7.199811) scale(-1, 1) rotate(-345.000000) translate(-34.866439, -7.199811) "></path>
                <g id="Oval-3">
                    <use fill="#1573BE" fill-rule="evenodd" xlink:href="#path-2"></use>
                    <circle stroke="#FFFFFF" stroke-width="1" cx="90" cy="12" r="5.5"></circle>
                </g>
                <g id="Oval-3">
                    <use fill="#1573BE" fill-rule="evenodd" xlink:href="#path-3"></use>
                    <circle stroke="#FFFFFF" stroke-width="1" cx="20" cy="12" r="5.5"></circle>
                </g>
            </g>
        </g>
    </g>
</svg>