<?xml version="1.0" encoding="UTF-8"?>
<svg width="120px" height="120px" viewBox="0 0 120 120" version="1.1" xmlns="http://www.w3.org/2000/svg" xmlns:xlink="http://www.w3.org/1999/xlink">
    <!-- Generator: Sketch 47.1 (45422) - http://www.bohemiancoding.com/sketch -->
    <title>ic_process-5</title>
    <desc>Created with Sketch.</desc>
    <defs>
        <linearGradient x1="50%" y1="0%" x2="50%" y2="100%" id="linearGradient-1">
            <stop stop-color="#489DE0" offset="0%"></stop>
            <stop stop-color="#2F88CF" offset="100%"></stop>
        </linearGradient>
        <linearGradient x1="50%" y1="99.0510883%" x2="50%" y2="2.63273278%" id="linearGradient-2">
            <stop stop-color="#EBF7FF" offset="0%"></stop>
            <stop stop-color="#F3FAFF" offset="100%"></stop>
        </linearGradient>
    </defs>
    <g id="Symbols" stroke="none" stroke-width="1" fill="none" fill-rule="evenodd">
        <g id="ic_process-5">
            <path d="M64,83.8559261 L65.435987,82.4196535 L71,87.984254 L71,80 L64,80 L64,83.8559261 Z M62.1430519,90 L61,90 L61,88.8568274 L60,87.8567218 L61,86.8565229 L61,80 L54,80 L54,90 L51,90 L51,80 L44,80 L44,90 L41,90 L41,80 L34,80 L34,90 L31,90 L31,80 L24,80 L24,90 L21,90 L21,25.6631844 C19.8175263,25.1014525 19,23.896198 19,22.5 C19,20.5670034 20.5670034,19 22.5,19 C24.4329966,19 26,20.5670034 26,22.5 C26,23.896198 25.1824737,25.1014525 24,25.6631844 L24,40 L31,40 L31,33 L34,33 L34,40 L41,40 L41,33 L44,33 L44,40 L51,40 L51,33 L54,33 L54,40 L61,40 L61,33 L64,33 L64,40 L71,40 L71,33 L74,33 L74,40 L81,40 L81,25.6631844 C79.8175263,25.1014525 79,23.896198 79,22.5 C79,20.5670034 80.5670034,19 82.5,19 C84.4329966,19 86,20.5670034 86,22.5 C86,23.896198 85.1824737,25.1014525 84,25.6631844 L84,84.3423491 L99.3430502,69 L104.777956,74.435987 L81.1156788,98.0993453 L75.6786105,103.536414 L70.2415422,98.0993453 L62.1430519,90 Z M81,87.342212 L81,80 L74,80 L74,90 L73.0155333,90 L75.6786105,92.6633584 L81,87.342212 Z M71,43 L64,43 L64,77 L71,77 L71,43 Z M74,43 L74,77 L81,77 L81,43 L74,43 Z M61,43 L54,43 L54,77 L61,77 L61,43 Z M51,43 L44,43 L44,77 L51,77 L51,43 Z M41,43 L34,43 L34,77 L41,77 L41,43 Z M31,43 L24,43 L24,77 L31,77 L31,43 Z" id="Combined-Shape" fill="url(#linearGradient-1)"></path>
            <path d="M99.4643388,67 L107.020305,74.5574698 L82.2974978,99.2814071 L75.7997694,105.779136 L74.7391092,104.718475 L69.3019849,99.2813511 L58,87.9781729 L65.5570963,80.4195733 L75.7998496,90.6634079 L99.4643388,67 Z M75.7996891,94.9061121 L65.5571953,84.6625369 L62.2423178,87.9780739 L71.4233612,97.1600868 L75.7997694,101.536495 L80.1761533,97.160111 L102.777924,74.5573073 L99.4640793,71.2428032 L75.7996891,94.9061121 Z" id="Page-1" fill="url(#linearGradient-2)" fill-rule="nonzero"></path>
        </g>
    </g>
</svg>