<?xml version="1.0" encoding="UTF-8"?>
<svg width="120px" height="120px" viewBox="0 0 120 120" version="1.1" xmlns="http://www.w3.org/2000/svg" xmlns:xlink="http://www.w3.org/1999/xlink">
    <!-- Generator: Sketch 47.1 (45422) - http://www.bohemiancoding.com/sketch -->
    <title>ic_process-4</title>
    <desc>Created with Sketch.</desc>
    <defs>
        <linearGradient x1="50%" y1="0%" x2="50%" y2="100%" id="linearGradient-1">
            <stop stop-color="#489DE0" offset="0%"></stop>
            <stop stop-color="#2F88CF" offset="100%"></stop>
        </linearGradient>
    </defs>
    <g id="Symbols" stroke="none" stroke-width="1" fill="none" fill-rule="evenodd">
        <g id="ic_process-4">
            <path d="M43.1807241,37 C43.0616299,37.8634689 43,38.7462668 43,39.6440555 C43,49.8244478 50.9245063,58.0772864 60.6998802,58.0772864 L60.6998802,58.0772864 C70.4752542,58.0772864 78.3997605,49.8244478 78.3997605,39.6440555 C78.3997605,38.7900217 78.3439914,37.9495531 78.236039,37.1263841" id="Oval-7"></path>
            <path d="M92,96 C92,78.326888 77.8969696,64 60.5,64 C43.1030304,64 29,78.326888 29,96" id="Oval-6"></path>
            <path d="M50.6988497,102.968723 C50.1018688,106.530148 52.3430444,108.994758 56.8514999,107.863316 C62.7849121,106.374268 66.0767841,108.227578 67.2391991,112.568401 L65.6882129,112.983735 C64.7561885,109.503262 62.3380201,108.141843 57.2423301,109.420657 C51.4283029,110.879745 48.2834079,107.244336 49.142924,102.550831 C47.6149018,101.759025 46.7875926,99.9864773 47.2513502,98.2557105 L49.5427138,89.7042254 L47.3521127,89.7042254 C44.3962225,89.7042254 42,87.3080029 42,84.3521127 C42,81.3962225 44.3962225,79 47.3521127,79 L67.1549296,79 L67.1549296,81.1408451 L76.7887324,81.1408451 C78.5622665,81.1408451 80,82.5785785 80,84.3521127 C80,86.1256468 78.5622665,87.5633803 76.7887324,87.5633803 L67.1549296,87.5633803 L67.1549296,89.7042254 L57.2999944,89.7042254 L54.4889916,100.195031 C54.0248357,101.927284 52.419735,103.04914 50.6988497,102.968723 Z M65.5,14.6399186 C71.8233204,16.4825789 76.6035216,22.1119184 77.3870174,29 L80.5,29 L80.5,34 L41.5,34 L41.5,29 L44.6129826,29 C45.4372762,21.7532457 50.6853408,15.8997356 57.5,14.3832274 L57.5,13 L65.5,13 L65.5,14.6399186 Z M94,96 L91,96 C91,79.1500736 77.5632088,65.5 61,65.5 C44.4367912,65.5 31,79.1500736 31,96 L28,96 C28,77.5037024 42.7692696,62.5 61,62.5 C79.2307304,62.5 94,77.5037024 94,96 Z M42.1947913,36.7950523 L45.166657,37.2049477 C45.055961,38.0075267 45,38.8218986 45,39.6440555 C45,49.0093386 52.2668633,56.5772864 61.1998802,56.5772864 C70.1328972,56.5772864 77.3997605,49.0093386 77.3997605,39.6440555 C77.3997605,38.8616693 77.3490826,38.0863122 77.2487738,37.3214276 L80.2233043,36.9313405 C80.3405657,37.8254939 80.3997605,38.7311558 80.3997605,39.6440555 C80.3997605,50.639557 71.8176112,59.5772864 61.1998802,59.5772864 C50.5821493,59.5772864 42,50.639557 42,39.6440555 C42,38.6847054 42.0653719,37.7333815 42.1947913,36.7950523 Z" id="Combined-Shape" fill="url(#linearGradient-1)" fill-rule="nonzero"></path>
        </g>
    </g>
</svg>