<?xml version="1.0" encoding="UTF-8"?>
<svg width="108px" height="23px" viewBox="0 0 108 23" version="1.1" xmlns="http://www.w3.org/2000/svg" xmlns:xlink="http://www.w3.org/1999/xlink">
    <!-- Generator: Sketch 47.1 (45422) - http://www.bohemiancoding.com/sketch -->
    <title>bt door-3</title>
    <desc>Created with Sketch.</desc>
    <defs>
        <linearGradient x1="50%" y1="0%" x2="50%" y2="100%" id="linearGradient-1">
            <stop stop-color="#489DE0" offset="0%"></stop>
            <stop stop-color="#2F88CF" offset="100%"></stop>
        </linearGradient>
        <circle id="path-2" cx="29" cy="7" r="6"></circle>
    </defs>
    <g id="Symbols" stroke="none" stroke-width="1" fill="none" fill-rule="evenodd">
        <g id="bt-door-3">
            <g transform="translate(0.000000, 1.000000)">
                <rect id="Rectangle-6" fill="#CBE8FF" x="0" y="7" width="30" height="15" rx="3"></rect>
                <rect id="Rectangle-6" fill="#CBE8FF" x="78" y="7" width="30" height="15" rx="3"></rect>
                <path d="M29.9664494,2.12401462 L73.3703523,2.53117865 L73.3703523,2.53117865 C74.9198994,2.54571466 76.1684008,3.80598297 76.1684008,5.35559829 L76.1684008,5.35559829 L76.1684008,5.35559829 C76.1684008,6.88655682 74.9273137,8.12764393 73.3963552,8.12764393 C73.3876874,8.12764393 73.3790197,8.12760327 73.3703523,8.12752197 L29.9664494,7.72035793 L29.9664494,7.72035793 C28.4169022,7.70582192 27.1684008,6.44555361 27.1684008,4.8959383 L27.1684008,4.8959383 L27.1684008,4.8959383 C27.1684008,3.36497976 28.4094879,2.12389265 29.9404464,2.12389265 C29.9491142,2.12389265 29.957782,2.12393331 29.9664494,2.12401462 Z" id="Rectangle-5" fill="url(#linearGradient-1)" transform="translate(51.668401, 5.125768) rotate(-365.000000) translate(-51.668401, -5.125768) "></path>
                <g id="Oval-3">
                    <use fill="#1573BE" fill-rule="evenodd" xlink:href="#path-2"></use>
                    <circle stroke="#FFFFFF" stroke-width="1" cx="29" cy="7" r="5.5"></circle>
                </g>
            </g>
        </g>
    </g>
</svg>