<?xml version="1.0" encoding="UTF-8"?>
<svg width="108px" height="23px" viewBox="0 0 108 23" version="1.1" xmlns="http://www.w3.org/2000/svg" xmlns:xlink="http://www.w3.org/1999/xlink">
    <!-- Generator: Sketch 47.1 (45422) - http://www.bohemiancoding.com/sketch -->
    <title>bt door-1 disabled</title>
    <desc>Created with Sketch.</desc>
    <defs>
        <rect id="path-1" x="0" y="0" width="30" height="15" rx="3"></rect>
        <rect id="path-2" x="78" y="0" width="30" height="15" rx="3"></rect>
        <path d="M29.9664494,14.1240146 L73.3703523,14.5311786 L73.3703523,14.5311786 C74.9198994,14.5457147 76.1684008,15.805983 76.1684008,17.3555983 L76.1684008,17.3555983 L76.1684008,17.3555983 C76.1684008,18.8865568 74.9273137,20.1276439 73.3963552,20.1276439 C73.3876874,20.1276439 73.3790197,20.1276033 73.3703523,20.127522 L29.9664494,19.7203579 L29.9664494,19.7203579 C28.4169022,19.7058219 27.1684008,18.4455536 27.1684008,16.8959383 L27.1684008,16.8959383 L27.1684008,16.8959383 C27.1684008,15.3649798 28.4094879,14.1238927 29.9404464,14.1238927 C29.9491142,14.1238927 29.957782,14.1239333 29.9664494,14.1240146 Z" id="path-3"></path>
        <circle id="path-4" cx="29" cy="15" r="6"></circle>
    </defs>
    <g id="Symbols" stroke="none" stroke-width="1" fill="none" fill-rule="evenodd">
        <g id="bt-door-1-disabled">
            <g id="bt-door-1">
                <g id="Rectangle-6">
                    <use fill="#F2F2F2" fill-rule="evenodd" xlink:href="#path-1"></use>
                    <rect stroke="#E4E4E4" stroke-width="1" x="0.5" y="0.5" width="29" height="14" rx="3"></rect>
                </g>
                <g id="Rectangle-6">
                    <use fill="#F2F2F2" fill-rule="evenodd" xlink:href="#path-2"></use>
                    <rect stroke="#E4E4E4" stroke-width="1" x="78.5" y="0.5" width="29" height="14" rx="3"></rect>
                </g>
                <g id="Rectangle-5" transform="translate(51.668401, 17.125768) rotate(-355.000000) translate(-51.668401, -17.125768) ">
                    <use fill="#F2F2F2" fill-rule="evenodd" xlink:href="#path-3"></use>
                    <path stroke="#E4E4E4" stroke-width="1" d="M29.9617592,14.6239926 C29.951103,14.6239093 29.951103,14.6239093 29.9404464,14.6238927 C28.6856303,14.6238927 27.6684008,15.6411221 27.6684008,16.8959383 C27.6684008,18.1712411 28.6958928,19.2084171 29.9711396,19.2203799 L73.3750425,19.627544 C73.3856987,19.6276273 73.3856987,19.6276273 73.3963552,19.6276439 C74.6511713,19.6276439 75.6684008,18.6104144 75.6684008,17.3555983 C75.6684008,16.0802955 74.6409088,15.0431195 73.3656621,15.0311566 L29.9617592,14.6239926 Z"></path>
                </g>
                <g id="Oval-3">
                    <use fill="#F2F2F2" fill-rule="evenodd" xlink:href="#path-4"></use>
                    <circle stroke="#E4E4E4" stroke-width="1" cx="29" cy="15" r="5.5"></circle>
                </g>
            </g>
        </g>
    </g>
</svg>