<?xml version="1.0" encoding="UTF-8"?>
<svg width="108px" height="23px" viewBox="0 0 108 23" version="1.1" xmlns="http://www.w3.org/2000/svg" xmlns:xlink="http://www.w3.org/1999/xlink">
    <!-- Generator: Sketch 47.1 (45422) - http://www.bohemiancoding.com/sketch -->
    <title>bt door-1 active</title>
    <desc>Created with Sketch.</desc>
    <defs>
        <linearGradient x1="50%" y1="3.37611607%" x2="50%" y2="100%" id="linearGradient-1">
            <stop stop-color="#F1BF00" offset="0%"></stop>
            <stop stop-color="#DF8B00" offset="100%"></stop>
        </linearGradient>
        <circle id="path-2" cx="29" cy="15" r="6"></circle>
    </defs>
    <g id="Symbols" stroke="none" stroke-width="1" fill="none" fill-rule="evenodd">
        <g id="bt-door-1-active">
            <g id="bt-door-1">
                <rect id="Rectangle-6" fill="#FAD53F" x="0" y="0" width="30" height="15" rx="3"></rect>
                <rect id="Rectangle-6" fill="#FAD53F" x="78" y="0" width="30" height="15" rx="3"></rect>
                <path d="M29.9664494,14.1240146 L73.3703523,14.5311786 L73.3703523,14.5311786 C74.9198994,14.5457147 76.1684008,15.805983 76.1684008,17.3555983 L76.1684008,17.3555983 L76.1684008,17.3555983 C76.1684008,18.8865568 74.9273137,20.1276439 73.3963552,20.1276439 C73.3876874,20.1276439 73.3790197,20.1276033 73.3703523,20.127522 L29.9664494,19.7203579 L29.9664494,19.7203579 C28.4169022,19.7058219 27.1684008,18.4455536 27.1684008,16.8959383 L27.1684008,16.8959383 L27.1684008,16.8959383 C27.1684008,15.3649798 28.4094879,14.1238927 29.9404464,14.1238927 C29.9491142,14.1238927 29.957782,14.1239333 29.9664494,14.1240146 Z" id="Rectangle-5" fill="url(#linearGradient-1)" transform="translate(51.668401, 17.125768) rotate(-355.000000) translate(-51.668401, -17.125768) "></path>
                <g id="Oval-3">
                    <use fill="#C67B00" fill-rule="evenodd" xlink:href="#path-2"></use>
                    <circle stroke="#FFFFFF" stroke-width="1" cx="29" cy="15" r="5.5"></circle>
                </g>
            </g>
        </g>
    </g>
</svg>