<?xml version="1.0" encoding="UTF-8"?>
<svg width="108px" height="23px" viewBox="0 0 108 23" version="1.1" xmlns="http://www.w3.org/2000/svg" xmlns:xlink="http://www.w3.org/1999/xlink">
    <!-- Generator: Sketch 47.1 (45422) - http://www.bohemiancoding.com/sketch -->
    <title>bt door-4 active</title>
    <desc>Created with Sketch.</desc>
    <defs>
        <linearGradient x1="50%" y1="3.37611607%" x2="50%" y2="100%" id="linearGradient-1">
            <stop stop-color="#F1BF00" offset="0%"></stop>
            <stop stop-color="#DF8B00" offset="100%"></stop>
        </linearGradient>
        <circle id="path-2" cx="79" cy="8" r="6"></circle>
    </defs>
    <g id="Symbols" stroke="none" stroke-width="1" fill="none" fill-rule="evenodd">
        <g id="bt-door-4-active">
            <g id="bt-door-4">
                <rect id="Rectangle-6" fill="#FAD53F" x="0" y="8" width="30" height="15" rx="3"></rect>
                <rect id="Rectangle-6" fill="#FAD53F" x="78" y="8" width="30" height="15" rx="3"></rect>
                <path d="M32.9664494,2.12401462 L76.3703523,2.53117865 L76.3703523,2.53117865 C77.9198994,2.54571466 79.1684008,3.80598297 79.1684008,5.35559829 L79.1684008,5.35559829 L79.1684008,5.35559829 C79.1684008,6.88655682 77.9273137,8.12764393 76.3963552,8.12764393 C76.3876874,8.12764393 76.3790197,8.12760327 76.3703523,8.12752197 L32.9664494,7.72035793 L32.9664494,7.72035793 C31.4169022,7.70582192 30.1684008,6.44555361 30.1684008,4.8959383 L30.1684008,4.8959383 L30.1684008,4.8959383 C30.1684008,3.36497976 31.4094879,2.12389265 32.9404464,2.12389265 C32.9491142,2.12389265 32.957782,2.12393331 32.9664494,2.12401462 Z" id="Rectangle-5" fill="url(#linearGradient-1)" transform="translate(54.668401, 5.125768) rotate(-355.000000) translate(-54.668401, -5.125768) "></path>
                <g id="Oval-3">
                    <use fill="#C67B00" fill-rule="evenodd" xlink:href="#path-2"></use>
                    <circle stroke="#FFFFFF" stroke-width="1" cx="79" cy="8" r="5.5"></circle>
                </g>
            </g>
        </g>
    </g>
</svg>